<svg xmlns="http://www.w3.org/2000/svg" xmlns:xlink="http://www.w3.org/1999/xlink" width="100%" height="100%" version="1.1" viewBox="0 0 468 238" xml:space="preserve" style="fill-rule:evenodd;clip-rule:evenodd;stroke-linecap:round;stroke-linejoin:round;stroke-miterlimit:10"><g transform="matrix(1,0,0,1,-33,0)"><rect id="Page-1" width="500" height="500" x="0" y="0" style="fill:none"/><clipPath id="_clip1"><rect id="Page-11" width="500" height="500" x="0" y="0"/></clipPath><g clip-path="url(#_clip1)"><g id="BACKGROUND-1"><g><path d="M0,-371.164C-0.059,-370.948 -0.127,-370.736 -0.185,-370.519C-5.486,-350.603 -3.949,-328.096 7.757,-311.134C20.761,-292.291 43.738,-283.166 65.946,-277.601C124.155,-263.014 185.645,-265.839 243.864,-251.29C280.278,-242.191 319.103,-221.615 327.926,-185.133C337.091,-147.239 310.062,-110.082 307.846,-71.16C306.382,-45.429 316.335,-20.09 332.719,0L332.719,-371.164L0,-371.164Z" transform="matrix(1,0,0,1,176.206,361.138)" style="fill:#ffd350;fill-rule:nonzero"/></g><g><path d="M0,-99.393C1.481,-93.537 2.275,-87.407 2.275,-81.09C2.275,-39.992 -31.042,-6.676 -72.139,-6.676C-113.237,-6.676 -146.554,-39.992 -146.554,-81.09C-146.554,-87.407 -145.76,-93.537 -144.279,-99.393L-151.129,-99.393C-152.487,-93.508 -153.229,-87.388 -153.229,-81.09C-153.229,-36.305 -116.924,0 -72.139,0C-27.354,0 8.951,-36.305 8.951,-81.09C8.951,-87.388 8.209,-93.508 6.851,-99.393L0,-99.393Z" transform="matrix(1,0,0,1,234.646,89.3671)" style="fill:#ffe63e"/></g><g><path d="M0,-66.466C0,-69.868 0.242,-73.212 0.685,-76.492L-6.057,-76.492C-6.462,-73.206 -6.676,-69.862 -6.676,-66.466C-6.676,-31.124 15.941,-1.08 47.485,10.026L47.485,2.903C19.703,-7.89 0,-34.869 0,-66.466" transform="matrix(1,0,0,1,461.44,66.466)" style="fill:#fff;fill-rule:nonzero"/></g><g><path d="M-66.131,-27.393L11.346,-27.393" transform="matrix(-0.707107,0.707107,0.707107,0.707107,475.255,271.665)" style="fill:none;fill-rule:nonzero;stroke:#68ecdf;stroke-width:3px"/></g><g><path d="M-66.132,-27.393L11.347,-27.393" transform="matrix(-0.7071,0.707113,0.707113,0.7071,371.234,218.322)" style="fill:none;fill-rule:nonzero;stroke:#68ecdf;stroke-width:3px"/></g><g><path d="M-66.131,-27.393L11.346,-27.393" transform="matrix(-0.707107,0.707107,0.707107,0.707107,390.719,187.128)" style="fill:none;fill-rule:nonzero;stroke:#68ecdf;stroke-width:3px"/></g><g><path d="M-2.727,-2.727C-4.233,-2.727 -5.454,-1.506 -5.454,0.001C-5.454,1.506 -4.233,2.727 -2.727,2.727C-1.221,2.727 0.001,1.506 0.001,0.001C0.001,-1.506 -1.221,-2.727 -2.727,-2.727" transform="matrix(0,-1,-1,0,384.157,190.667)" style="fill:#fff;fill-rule:nonzero"/></g><g transform="matrix(0,-1,-1,0,34.2699,243.758)"><circle cx="-11.173" cy="0" r="11.173" style="fill:none;stroke:#ffd350;stroke-width:3px;stroke-linecap:butt;stroke-linejoin:miter"/></g><g transform="matrix(0,-1,-1,0,460.827,113.655)"><ellipse cx="-11.173" cy="0" rx="11.172" ry="11.173" style="fill:none;stroke:#ffd350;stroke-width:3px;stroke-linecap:butt;stroke-linejoin:miter"/></g><g><path d="M-12.066,-12.066C-18.73,-12.066 -24.132,-6.664 -24.132,0C-24.132,6.664 -18.73,12.066 -12.066,12.066C-5.402,12.066 0,6.664 0,0C0,-6.664 -5.402,-12.066 -12.066,-12.066" transform="matrix(0,-1,-1,0,55.0751,46.3876)" style="fill:#fff;fill-rule:nonzero"/></g><g><path d="M0,-10.311L-9.854,-10.311L-9.854,-20.166L-20.166,-20.166L-20.166,-10.311L-30.021,-10.311L-30.021,0L-20.166,0L-20.166,9.855L-9.854,9.855L-9.854,0L0,0L0,-10.311Z" transform="matrix(1,0,0,1,224.182,199.748)" style="fill:#ffe63e;fill-rule:nonzero"/></g><g><path d="M0,-10.312L-9.855,-10.312L-9.855,-20.166L-20.166,-20.166L-20.166,-10.312L-30.021,-10.312L-30.021,0L-20.166,0L-20.166,9.854L-9.855,9.854L-9.855,0L0,0L0,-10.312Z" transform="matrix(1,0,0,1,384.993,51.5434)" style="fill:#fff;fill-rule:nonzero"/></g><g><path d="M-1.265,-0.524C-2.252,-0.524 -3.052,0.277 -3.052,1.264C-3.053,2.252 -2.252,3.052 -1.265,3.051C-0.277,3.052 0.524,2.252 0.523,1.264C0.523,0.277 -0.277,-0.524 -1.265,-0.524" transform="matrix(0.707107,-0.707107,-0.707107,-0.707107,253.839,4.0636)" style="fill:#ffd350;fill-rule:nonzero"/></g><g><path d="M-1.264,-0.524C-2.251,-0.524 -3.052,0.277 -3.052,1.264C-3.052,2.251 -2.252,3.052 -1.264,3.051C-0.277,3.051 0.523,2.251 0.523,1.264C0.523,0.277 -0.277,-0.524 -1.264,-0.524" transform="matrix(0.707107,-0.707107,-0.707107,-0.707107,261.883,12.1077)" style="fill:#ffd350;fill-rule:nonzero"/></g><g><path d="M-1.265,-0.524C-2.252,-0.524 -3.052,0.277 -3.052,1.264C-3.053,2.252 -2.252,3.052 -1.265,3.051C-0.277,3.052 0.524,2.252 0.523,1.264C0.523,0.277 -0.277,-0.524 -1.265,-0.524" transform="matrix(0.707107,-0.707107,-0.707107,-0.707107,269.927,20.152)" style="fill:#ffd350;fill-rule:nonzero"/></g><g><path d="M-1.264,-0.524C-2.25,-0.524 -3.051,0.276 -3.051,1.263C-3.052,2.251 -2.251,3.051 -1.264,3.051C-0.277,3.051 0.524,2.251 0.524,1.264C0.524,0.277 -0.277,-0.523 -1.264,-0.524" transform="matrix(0.707247,-0.706967,-0.706967,-0.707247,277.971,28.1968)" style="fill:#ffd350;fill-rule:nonzero"/></g><g><path d="M-1.265,-0.524C-2.252,-0.524 -3.052,0.277 -3.052,1.264C-3.053,2.252 -2.252,3.052 -1.265,3.051C-0.277,3.052 0.524,2.252 0.523,1.264C0.523,0.277 -0.277,-0.524 -1.265,-0.524" transform="matrix(0.707107,-0.707107,-0.707107,-0.707107,286.016,36.2404)" style="fill:#ffd350;fill-rule:nonzero"/></g><g><path d="M-1.264,-0.524C-2.251,-0.524 -3.052,0.277 -3.052,1.264C-3.052,2.251 -2.252,3.052 -1.264,3.051C-0.277,3.051 0.523,2.251 0.523,1.264C0.523,0.277 -0.277,-0.524 -1.264,-0.524" transform="matrix(0.707107,-0.707107,-0.707107,-0.707107,294.06,44.2844)" style="fill:#ffd350;fill-rule:nonzero"/></g><g><path d="M-1.265,-0.524C-2.252,-0.524 -3.052,0.277 -3.052,1.264C-3.053,2.252 -2.252,3.052 -1.265,3.051C-0.277,3.052 0.524,2.252 0.523,1.264C0.523,0.277 -0.277,-0.524 -1.265,-0.524" transform="matrix(0.707107,-0.707107,-0.707107,-0.707107,302.104,52.3288)" style="fill:#ffd350;fill-rule:nonzero"/></g><g><path d="M-1.264,-0.524C-2.25,-0.524 -3.051,0.277 -3.051,1.263C-3.052,2.251 -2.251,3.051 -1.264,3.051C-0.277,3.052 0.524,2.251 0.524,1.264C0.524,0.277 -0.277,-0.523 -1.264,-0.524" transform="matrix(0.707247,-0.706967,-0.706967,-0.707247,310.148,60.3736)" style="fill:#ffd350;fill-rule:nonzero"/></g><g><path d="M-1.264,-0.524C-2.251,-0.524 -3.052,0.277 -3.052,1.264C-3.052,2.251 -2.252,3.052 -1.264,3.051C-0.277,3.051 0.523,2.251 0.523,1.264C0.523,0.277 -0.277,-0.524 -1.264,-0.524" transform="matrix(0.707107,-0.707107,-0.707107,-0.707107,240.164,1.65025)" style="fill:#ffd350;fill-rule:nonzero"/></g><g><path d="M-1.264,-0.523C-2.251,-0.523 -3.052,0.277 -3.052,1.264C-3.052,2.251 -2.251,3.052 -1.264,3.052C-0.277,3.052 0.524,2.252 0.523,1.264C0.523,0.277 -0.277,-0.523 -1.264,-0.523" transform="matrix(0.707107,-0.707107,-0.707107,-0.707107,248.208,9.69485)" style="fill:#ffd350;fill-rule:nonzero"/></g><g><path d="M-1.264,-0.524C-2.251,-0.524 -3.052,0.277 -3.052,1.264C-3.052,2.251 -2.252,3.052 -1.264,3.051C-0.277,3.051 0.523,2.251 0.523,1.264C0.523,0.277 -0.277,-0.524 -1.264,-0.524" transform="matrix(0.707107,-0.707107,-0.707107,-0.707107,256.252,17.7385)" style="fill:#ffd350;fill-rule:nonzero"/></g><g><path d="M-1.265,-0.524C-2.252,-0.524 -3.052,0.277 -3.052,1.264C-3.053,2.252 -2.252,3.052 -1.265,3.051C-0.277,3.052 0.524,2.252 0.523,1.264C0.523,0.277 -0.277,-0.524 -1.265,-0.524" transform="matrix(0.707107,-0.707107,-0.707107,-0.707107,264.296,25.7829)" style="fill:#ffd350;fill-rule:nonzero"/></g><g><path d="M-1.264,-0.524C-2.25,-0.524 -3.051,0.277 -3.051,1.263C-3.052,2.251 -2.251,3.051 -1.264,3.051C-0.277,3.052 0.524,2.251 0.524,1.264C0.524,0.277 -0.277,-0.523 -1.264,-0.524" transform="matrix(0.707247,-0.706967,-0.706967,-0.707247,272.34,33.8277)" style="fill:#ffd350;fill-rule:nonzero"/></g><g><path d="M-1.265,-0.524C-2.252,-0.524 -3.052,0.277 -3.052,1.264C-3.053,2.252 -2.252,3.052 -1.265,3.051C-0.277,3.052 0.524,2.252 0.523,1.264C0.523,0.277 -0.277,-0.524 -1.265,-0.524" transform="matrix(0.707107,-0.707107,-0.707107,-0.707107,280.385,41.8712)" style="fill:#ffd350;fill-rule:nonzero"/></g><g><path d="M-1.264,-0.524C-2.251,-0.524 -3.052,0.277 -3.052,1.264C-3.052,2.251 -2.252,3.052 -1.264,3.051C-0.277,3.051 0.523,2.251 0.523,1.264C0.523,0.277 -0.277,-0.524 -1.264,-0.524" transform="matrix(0.707107,-0.707107,-0.707107,-0.707107,288.429,49.9153)" style="fill:#ffd350;fill-rule:nonzero"/></g><g><path d="M-1.265,-0.524C-2.252,-0.524 -3.052,0.277 -3.052,1.264C-3.053,2.252 -2.252,3.052 -1.265,3.051C-0.277,3.052 0.524,2.252 0.523,1.264C0.523,0.277 -0.277,-0.524 -1.265,-0.524" transform="matrix(0.707107,-0.707107,-0.707107,-0.707107,296.473,57.9596)" style="fill:#ffd350;fill-rule:nonzero"/></g><g><path d="M-1.264,-0.524C-2.251,-0.524 -3.051,0.277 -3.051,1.263C-3.052,2.251 -2.251,3.051 -1.264,3.051C-0.277,3.052 0.523,2.251 0.524,1.264C0.524,0.277 -0.277,-0.523 -1.264,-0.524" transform="matrix(0.707247,-0.706967,-0.706967,-0.707247,304.517,66.0045)" style="fill:#ffd350;fill-rule:nonzero"/></g><g><path d="M-1.264,-0.524C-2.251,-0.524 -3.052,0.277 -3.052,1.264C-3.052,2.251 -2.251,3.052 -1.264,3.052C-0.277,3.052 0.524,2.251 0.524,1.264C0.524,0.277 -0.277,-0.524 -1.264,-0.524" transform="matrix(0.707107,-0.707107,-0.707107,-0.707107,226.488,-0.7625)" style="fill:#ffd350;fill-rule:nonzero"/></g><g><path d="M-1.264,-0.524C-2.251,-0.524 -3.052,0.277 -3.052,1.264C-3.052,2.251 -2.252,3.052 -1.264,3.051C-0.277,3.051 0.523,2.251 0.523,1.264C0.523,0.277 -0.277,-0.524 -1.264,-0.524" transform="matrix(0.707107,-0.707107,-0.707107,-0.707107,234.533,7.28105)" style="fill:#ffd350;fill-rule:nonzero"/></g><g><path d="M-1.264,-0.523C-2.251,-0.523 -3.052,0.277 -3.052,1.264C-3.052,2.251 -2.251,3.052 -1.264,3.052C-0.277,3.052 0.524,2.252 0.523,1.264C0.523,0.277 -0.277,-0.523 -1.264,-0.523" transform="matrix(0.707107,-0.707107,-0.707107,-0.707107,242.577,15.3257)" style="fill:#ffd350;fill-rule:nonzero"/></g><g><path d="M-1.264,-0.524C-2.251,-0.524 -3.052,0.277 -3.052,1.264C-3.052,2.251 -2.252,3.052 -1.264,3.051C-0.277,3.051 0.523,2.251 0.523,1.264C0.523,0.277 -0.277,-0.524 -1.264,-0.524" transform="matrix(0.707107,-0.707107,-0.707107,-0.707107,250.621,23.3694)" style="fill:#ffd350;fill-rule:nonzero"/></g><g><path d="M-1.265,-0.524C-2.252,-0.524 -3.052,0.277 -3.052,1.264C-3.053,2.252 -2.252,3.052 -1.265,3.051C-0.277,3.052 0.524,2.252 0.523,1.264C0.523,0.277 -0.277,-0.524 -1.265,-0.524" transform="matrix(0.707107,-0.707107,-0.707107,-0.707107,258.665,31.4137)" style="fill:#ffd350;fill-rule:nonzero"/></g><g><path d="M-1.264,-0.524C-2.251,-0.524 -3.052,0.277 -3.052,1.264C-3.052,2.251 -2.251,3.052 -1.264,3.052C-0.277,3.052 0.524,2.251 0.524,1.264C0.524,0.277 -0.277,-0.524 -1.264,-0.524" transform="matrix(0.707107,-0.707107,-0.707107,-0.707107,266.709,39.4582)" style="fill:#ffd350;fill-rule:nonzero"/></g><g><path d="M-1.265,-0.524C-2.252,-0.524 -3.052,0.276 -3.052,1.263C-3.053,2.251 -2.252,3.052 -1.265,3.051C-0.277,3.052 0.524,2.251 0.523,1.263C0.522,0.277 -0.278,-0.523 -1.265,-0.524" transform="matrix(0.707107,-0.707107,-0.707107,-0.707107,274.754,47.5017)" style="fill:#ffd350;fill-rule:nonzero"/></g><g><path d="M-1.264,-0.524C-2.251,-0.524 -3.052,0.277 -3.052,1.264C-3.052,2.251 -2.252,3.052 -1.264,3.051C-0.277,3.051 0.523,2.251 0.523,1.264C0.523,0.277 -0.277,-0.524 -1.264,-0.524" transform="matrix(0.707107,-0.707107,-0.707107,-0.707107,282.798,55.5461)" style="fill:#ffd350;fill-rule:nonzero"/></g><g><path d="M-1.265,-0.524C-2.252,-0.524 -3.052,0.277 -3.052,1.264C-3.053,2.252 -2.252,3.052 -1.265,3.051C-0.277,3.052 0.524,2.252 0.523,1.264C0.523,0.277 -0.277,-0.524 -1.265,-0.524" transform="matrix(0.707107,-0.707107,-0.707107,-0.707107,290.842,63.5905)" style="fill:#ffd350;fill-rule:nonzero"/></g><g><path d="M-1.264,-0.524C-2.251,-0.524 -3.052,0.277 -3.052,1.264C-3.052,2.251 -2.251,3.052 -1.264,3.052C-0.277,3.052 0.524,2.251 0.524,1.264C0.524,0.277 -0.277,-0.524 -1.264,-0.524" transform="matrix(0.707107,-0.707107,-0.707107,-0.707107,298.886,71.6349)" style="fill:#ffd350;fill-rule:nonzero"/></g><g><path d="M-1.264,-0.524C-2.251,-0.524 -3.052,0.277 -3.052,1.264C-3.052,2.251 -2.251,3.052 -1.264,3.052C-0.277,3.052 0.524,2.251 0.524,1.264C0.524,0.277 -0.277,-0.524 -1.264,-0.524" transform="matrix(0.707107,-0.707107,-0.707107,-0.707107,220.858,4.8683)" style="fill:#ffd350;fill-rule:nonzero"/></g><g><path d="M-1.265,-0.524C-2.252,-0.524 -3.052,0.277 -3.052,1.264C-3.053,2.252 -2.252,3.052 -1.265,3.051C-0.277,3.052 0.524,2.252 0.523,1.264C0.523,0.277 -0.277,-0.524 -1.265,-0.524" transform="matrix(0.707107,-0.707107,-0.707107,-0.707107,228.902,12.9123)" style="fill:#ffd350;fill-rule:nonzero"/></g><g><path d="M-1.264,-0.524C-2.251,-0.524 -3.052,0.277 -3.052,1.264C-3.052,2.251 -2.251,3.052 -1.264,3.052C-0.277,3.052 0.524,2.251 0.524,1.264C0.524,0.277 -0.277,-0.524 -1.264,-0.524" transform="matrix(0.707107,-0.707107,-0.707107,-0.707107,236.946,20.9567)" style="fill:#ffd350;fill-rule:nonzero"/></g><g><path d="M-1.265,-0.524C-2.252,-0.524 -3.052,0.277 -3.052,1.264C-3.053,2.252 -2.252,3.052 -1.265,3.051C-0.277,3.052 0.524,2.252 0.523,1.264C0.523,0.277 -0.277,-0.524 -1.265,-0.524" transform="matrix(0.707107,-0.707107,-0.707107,-0.707107,244.991,29.0006)" style="fill:#ffd350;fill-rule:nonzero"/></g><g><path d="M-1.264,-0.524C-2.251,-0.524 -3.052,0.277 -3.052,1.264C-3.052,2.251 -2.251,3.052 -1.264,3.052C-0.277,3.052 0.524,2.251 0.524,1.264C0.524,0.277 -0.277,-0.524 -1.264,-0.524" transform="matrix(0.707107,-0.707107,-0.707107,-0.707107,253.034,37.0451)" style="fill:#ffd350;fill-rule:nonzero"/></g><g><path d="M-1.264,-0.523C-2.251,-0.523 -3.052,0.277 -3.052,1.264C-3.052,2.251 -2.251,3.052 -1.264,3.052C-0.277,3.052 0.524,2.252 0.523,1.264C0.523,0.277 -0.277,-0.523 -1.264,-0.523" transform="matrix(0.707107,-0.707107,-0.707107,-0.707107,261.079,45.0894)" style="fill:#ffd350;fill-rule:nonzero"/></g><g><path d="M-1.264,-0.524C-2.251,-0.524 -3.052,0.276 -3.052,1.263C-3.053,2.251 -2.252,3.052 -1.264,3.051C-0.277,3.051 0.523,2.25 0.523,1.263C0.523,0.277 -0.278,-0.524 -1.264,-0.524" transform="matrix(0.707107,-0.707107,-0.707107,-0.707107,269.123,53.1328)" style="fill:#ffd350;fill-rule:nonzero"/></g><g><path d="M-1.265,-0.524C-2.252,-0.524 -3.052,0.277 -3.052,1.264C-3.053,2.252 -2.252,3.052 -1.265,3.051C-0.277,3.052 0.524,2.252 0.523,1.264C0.523,0.277 -0.277,-0.524 -1.265,-0.524" transform="matrix(0.707107,-0.707107,-0.707107,-0.707107,277.167,61.1774)" style="fill:#ffd350;fill-rule:nonzero"/></g><g><path d="M-1.264,-0.524C-2.251,-0.524 -3.052,0.277 -3.052,1.264C-3.052,2.251 -2.252,3.052 -1.264,3.051C-0.277,3.051 0.523,2.251 0.523,1.264C0.523,0.277 -0.277,-0.524 -1.264,-0.524" transform="matrix(0.707107,-0.707107,-0.707107,-0.707107,285.211,69.2214)" style="fill:#ffd350;fill-rule:nonzero"/></g><g><path d="M-1.264,-0.524C-2.251,-0.524 -3.052,0.277 -3.052,1.264C-3.052,2.251 -2.252,3.052 -1.264,3.051C-0.277,3.051 0.523,2.251 0.523,1.264C0.523,0.277 -0.277,-0.524 -1.264,-0.524" transform="matrix(0.707107,-0.707107,-0.707107,-0.707107,293.255,77.2654)" style="fill:#ffd350;fill-rule:nonzero"/></g><g><path d="M-1.264,-0.523C-2.251,-0.523 -3.052,0.277 -3.052,1.264C-3.052,2.251 -2.251,3.052 -1.264,3.052C-0.277,3.052 0.524,2.252 0.523,1.264C0.523,0.277 -0.277,-0.523 -1.264,-0.523" transform="matrix(0.707107,-0.707107,-0.707107,-0.707107,207.183,2.45505)" style="fill:#ffd350;fill-rule:nonzero"/></g><g><path d="M-1.264,-0.524C-2.251,-0.524 -3.052,0.277 -3.052,1.264C-3.052,2.251 -2.252,3.052 -1.264,3.051C-0.277,3.051 0.523,2.251 0.523,1.264C0.523,0.277 -0.277,-0.524 -1.264,-0.524" transform="matrix(0.707107,-0.707107,-0.707107,-0.707107,215.227,10.4988)" style="fill:#ffd350;fill-rule:nonzero"/></g><g><path d="M-1.264,-0.523C-2.251,-0.523 -3.052,0.277 -3.052,1.264C-3.052,2.251 -2.251,3.052 -1.264,3.052C-0.277,3.052 0.524,2.252 0.523,1.264C0.523,0.277 -0.277,-0.523 -1.264,-0.523" transform="matrix(0.707107,-0.707107,-0.707107,-0.707107,223.271,18.5435)" style="fill:#ffd350;fill-rule:nonzero"/></g><g><path d="M-1.264,-0.524C-2.251,-0.524 -3.052,0.277 -3.052,1.264C-3.052,2.251 -2.252,3.052 -1.264,3.051C-0.277,3.051 0.523,2.251 0.523,1.264C0.523,0.277 -0.277,-0.524 -1.264,-0.524" transform="matrix(0.707107,-0.707107,-0.707107,-0.707107,231.315,26.5872)" style="fill:#ffd350;fill-rule:nonzero"/></g><g><path d="M-1.264,-0.523C-2.251,-0.523 -3.052,0.277 -3.052,1.264C-3.052,2.251 -2.251,3.052 -1.264,3.052C-0.277,3.052 0.524,2.252 0.523,1.264C0.523,0.277 -0.277,-0.523 -1.264,-0.523" transform="matrix(0.707107,-0.707107,-0.707107,-0.707107,239.359,34.6319)" style="fill:#ffd350;fill-rule:nonzero"/></g><g><path d="M-1.264,-0.524C-2.251,-0.524 -3.052,0.277 -3.052,1.264C-3.052,2.251 -2.252,3.052 -1.264,3.051C-0.277,3.051 0.523,2.251 0.523,1.264C0.523,0.277 -0.277,-0.524 -1.264,-0.524" transform="matrix(0.707107,-0.707107,-0.707107,-0.707107,247.403,42.6755)" style="fill:#ffd350;fill-rule:nonzero"/></g><g><path d="M-1.265,-0.524C-2.252,-0.524 -3.052,0.277 -3.052,1.264C-3.053,2.252 -2.252,3.052 -1.265,3.051C-0.277,3.052 0.524,2.252 0.523,1.264C0.523,0.277 -0.277,-0.524 -1.265,-0.524" transform="matrix(0.707107,-0.707107,-0.707107,-0.707107,255.448,50.7199)" style="fill:#ffd350;fill-rule:nonzero"/></g><g><path d="M-1.264,-0.524C-2.25,-0.524 -3.051,0.277 -3.051,1.263C-3.052,2.251 -2.251,3.051 -1.264,3.051C-0.277,3.052 0.524,2.251 0.524,1.264C0.524,0.277 -0.277,-0.523 -1.264,-0.524" transform="matrix(0.707247,-0.706967,-0.706967,-0.707247,263.491,58.7647)" style="fill:#ffd350;fill-rule:nonzero"/></g><g><path d="M-1.265,-0.524C-2.252,-0.524 -3.052,0.277 -3.052,1.264C-3.053,2.252 -2.252,3.052 -1.265,3.051C-0.277,3.052 0.524,2.252 0.523,1.264C0.523,0.277 -0.277,-0.524 -1.265,-0.524" transform="matrix(0.707107,-0.707107,-0.707107,-0.707107,271.536,66.8083)" style="fill:#ffd350;fill-rule:nonzero"/></g><g><path d="M-1.264,-0.524C-2.251,-0.524 -3.052,0.277 -3.052,1.264C-3.052,2.251 -2.252,3.052 -1.264,3.051C-0.277,3.051 0.523,2.251 0.523,1.264C0.523,0.277 -0.277,-0.524 -1.264,-0.524" transform="matrix(0.707107,-0.707107,-0.707107,-0.707107,279.58,74.8523)" style="fill:#ffd350;fill-rule:nonzero"/></g><g><path d="M-1.265,-0.524C-2.252,-0.524 -3.052,0.277 -3.052,1.264C-3.053,2.252 -2.252,3.052 -1.265,3.051C-0.277,3.052 0.524,2.252 0.523,1.264C0.523,0.277 -0.277,-0.524 -1.265,-0.524" transform="matrix(0.707107,-0.707107,-0.707107,-0.707107,287.624,82.8966)" style="fill:#ffd350;fill-rule:nonzero"/></g><g><path d="M-1.264,-0.524C-2.251,-0.524 -3.052,0.277 -3.052,1.264C-3.052,2.251 -2.252,3.052 -1.264,3.051C-0.277,3.051 0.523,2.251 0.523,1.264C0.523,0.277 -0.277,-0.524 -1.264,-0.524" transform="matrix(0.707107,-0.707107,-0.707107,-0.707107,193.507,0.0413464)" style="fill:#ffd350;fill-rule:nonzero"/></g><g><path d="M-1.264,-0.523C-2.251,-0.523 -3.052,0.277 -3.052,1.264C-3.052,2.251 -2.251,3.052 -1.264,3.052C-0.277,3.052 0.524,2.252 0.523,1.264C0.523,0.277 -0.277,-0.523 -1.264,-0.523" transform="matrix(0.707107,-0.707107,-0.707107,-0.707107,201.552,8.08595)" style="fill:#ffd350;fill-rule:nonzero"/></g><g><path d="M-1.264,-0.524C-2.251,-0.524 -3.052,0.277 -3.052,1.264C-3.052,2.251 -2.252,3.052 -1.264,3.051C-0.277,3.051 0.523,2.251 0.523,1.264C0.523,0.277 -0.277,-0.524 -1.264,-0.524" transform="matrix(0.707107,-0.707107,-0.707107,-0.707107,209.596,16.1296)" style="fill:#ffd350;fill-rule:nonzero"/></g><g><path d="M-1.264,-0.523C-2.251,-0.523 -3.052,0.277 -3.052,1.264C-3.052,2.251 -2.251,3.052 -1.264,3.052C-0.277,3.052 0.524,2.252 0.523,1.264C0.523,0.277 -0.277,-0.523 -1.264,-0.523" transform="matrix(0.707107,-0.707107,-0.707107,-0.707107,217.64,24.1744)" style="fill:#ffd350;fill-rule:nonzero"/></g><g><path d="M-1.264,-0.524C-2.251,-0.524 -3.052,0.277 -3.052,1.264C-3.052,2.251 -2.252,3.052 -1.264,3.051C-0.277,3.051 0.523,2.251 0.523,1.264C0.523,0.277 -0.277,-0.524 -1.264,-0.524" transform="matrix(0.707107,-0.707107,-0.707107,-0.707107,225.684,32.218)" style="fill:#ffd350;fill-rule:nonzero"/></g><g><path d="M-1.264,-0.523C-2.251,-0.523 -3.052,0.277 -3.052,1.264C-3.052,2.251 -2.251,3.052 -1.264,3.052C-0.277,3.052 0.524,2.252 0.523,1.264C0.523,0.277 -0.277,-0.523 -1.264,-0.523" transform="matrix(0.707107,-0.707107,-0.707107,-0.707107,233.729,40.2628)" style="fill:#ffd350;fill-rule:nonzero"/></g><g><path d="M-1.264,-0.524C-2.251,-0.524 -3.052,0.277 -3.052,1.264C-3.052,2.251 -2.252,3.052 -1.264,3.051C-0.277,3.051 0.523,2.251 0.523,1.264C0.523,0.277 -0.277,-0.524 -1.264,-0.524" transform="matrix(0.707107,-0.707107,-0.707107,-0.707107,241.772,48.3064)" style="fill:#ffd350;fill-rule:nonzero"/></g><g><path d="M-1.264,-0.523C-2.251,-0.523 -3.052,0.277 -3.052,1.264C-3.052,2.251 -2.251,3.052 -1.264,3.052C-0.277,3.052 0.524,2.252 0.523,1.264C0.523,0.277 -0.277,-0.523 -1.264,-0.523" transform="matrix(0.707107,-0.707107,-0.707107,-0.707107,249.817,56.3511)" style="fill:#ffd350;fill-rule:nonzero"/></g><g><path d="M-1.264,-0.524C-2.251,-0.524 -3.051,0.277 -3.051,1.263C-3.052,2.251 -2.251,3.051 -1.264,3.051C-0.277,3.052 0.523,2.251 0.524,1.264C0.524,0.277 -0.277,-0.523 -1.264,-0.524" transform="matrix(0.707247,-0.706967,-0.706967,-0.707247,257.86,64.3956)" style="fill:#ffd350;fill-rule:nonzero"/></g><g><path d="M-1.265,-0.524C-2.252,-0.524 -3.052,0.276 -3.052,1.263C-3.053,2.251 -2.252,3.052 -1.265,3.051C-0.277,3.052 0.524,2.251 0.523,1.263C0.522,0.277 -0.278,-0.523 -1.265,-0.524" transform="matrix(0.707107,-0.707107,-0.707107,-0.707107,265.905,72.4387)" style="fill:#ffd350;fill-rule:nonzero"/></g><g><path d="M-1.264,-0.524C-2.251,-0.524 -3.052,0.277 -3.052,1.264C-3.052,2.251 -2.252,3.052 -1.264,3.051C-0.277,3.051 0.523,2.251 0.523,1.264C0.523,0.277 -0.277,-0.524 -1.264,-0.524" transform="matrix(0.707107,-0.707107,-0.707107,-0.707107,273.949,80.4832)" style="fill:#ffd350;fill-rule:nonzero"/></g><g><path d="M-1.265,-0.524C-2.252,-0.524 -3.052,0.277 -3.052,1.264C-3.053,2.252 -2.252,3.052 -1.265,3.051C-0.277,3.052 0.524,2.252 0.523,1.264C0.523,0.277 -0.277,-0.524 -1.265,-0.524" transform="matrix(0.707107,-0.707107,-0.707107,-0.707107,281.993,88.5275)" style="fill:#ffd350;fill-rule:nonzero"/></g><g><path d="M-1.265,-0.524C-2.252,-0.524 -3.052,0.277 -3.052,1.264C-3.053,2.252 -2.252,3.052 -1.265,3.051C-0.277,3.052 0.524,2.252 0.523,1.264C0.523,0.277 -0.277,-0.524 -1.265,-0.524" transform="matrix(0.707107,-0.707107,-0.707107,-0.707107,187.877,5.6725)" style="fill:#ffd350;fill-rule:nonzero"/></g><g><path d="M-1.264,-0.524C-2.251,-0.524 -3.052,0.277 -3.052,1.264C-3.052,2.251 -2.251,3.052 -1.264,3.052C-0.277,3.052 0.524,2.251 0.524,1.264C0.524,0.277 -0.277,-0.524 -1.264,-0.524" transform="matrix(0.707107,-0.707107,-0.707107,-0.707107,195.921,13.717)" style="fill:#ffd350;fill-rule:nonzero"/></g><g><path d="M-1.265,-0.524C-2.252,-0.524 -3.052,0.277 -3.052,1.264C-3.053,2.252 -2.252,3.052 -1.265,3.051C-0.277,3.052 0.524,2.252 0.523,1.264C0.523,0.277 -0.277,-0.524 -1.265,-0.524" transform="matrix(0.707107,-0.707107,-0.707107,-0.707107,203.965,21.7609)" style="fill:#ffd350;fill-rule:nonzero"/></g><g><path d="M-1.264,-0.524C-2.251,-0.524 -3.052,0.277 -3.052,1.264C-3.052,2.251 -2.251,3.052 -1.264,3.052C-0.277,3.052 0.524,2.251 0.524,1.264C0.524,0.277 -0.277,-0.524 -1.264,-0.524" transform="matrix(0.707107,-0.707107,-0.707107,-0.707107,212.009,29.8053)" style="fill:#ffd350;fill-rule:nonzero"/></g><g><path d="M-1.265,-0.524C-2.252,-0.524 -3.052,0.277 -3.052,1.264C-3.053,2.252 -2.252,3.052 -1.265,3.051C-0.277,3.052 0.524,2.252 0.523,1.264C0.523,0.277 -0.277,-0.524 -1.265,-0.524" transform="matrix(0.707107,-0.707107,-0.707107,-0.707107,220.054,37.8493)" style="fill:#ffd350;fill-rule:nonzero"/></g><g><path d="M-1.264,-0.524C-2.251,-0.524 -3.052,0.277 -3.052,1.264C-3.052,2.251 -2.251,3.052 -1.264,3.052C-0.277,3.052 0.524,2.251 0.524,1.264C0.524,0.277 -0.277,-0.524 -1.264,-0.524" transform="matrix(0.707107,-0.707107,-0.707107,-0.707107,228.097,45.8937)" style="fill:#ffd350;fill-rule:nonzero"/></g><g><path d="M-1.264,-0.524C-2.251,-0.524 -3.052,0.277 -3.052,1.264C-3.052,2.251 -2.252,3.052 -1.264,3.051C-0.277,3.051 0.523,2.251 0.523,1.264C0.523,0.277 -0.277,-0.524 -1.264,-0.524" transform="matrix(0.707107,-0.707107,-0.707107,-0.707107,236.142,53.9373)" style="fill:#ffd350;fill-rule:nonzero"/></g><g><path d="M-1.264,-0.523C-2.251,-0.523 -3.052,0.277 -3.052,1.264C-3.052,2.251 -2.251,3.052 -1.264,3.052C-0.277,3.052 0.524,2.252 0.523,1.264C0.523,0.277 -0.277,-0.523 -1.264,-0.523" transform="matrix(0.707107,-0.707107,-0.707107,-0.707107,244.186,61.982)" style="fill:#ffd350;fill-rule:nonzero"/></g><g><path d="M-1.264,-0.524C-2.251,-0.524 -3.052,0.277 -3.052,1.264C-3.052,2.251 -2.251,3.052 -1.264,3.052C-0.277,3.052 0.524,2.251 0.524,1.264C0.524,0.277 -0.277,-0.524 -1.264,-0.524" transform="matrix(0.707107,-0.707107,-0.707107,-0.707107,252.23,70.026)" style="fill:#ffd350;fill-rule:nonzero"/></g><g><path d="M-1.265,-0.524C-2.252,-0.524 -3.052,0.276 -3.052,1.263C-3.053,2.251 -2.252,3.052 -1.265,3.051C-0.277,3.052 0.524,2.251 0.523,1.263C0.522,0.277 -0.278,-0.523 -1.265,-0.524" transform="matrix(0.707107,-0.707107,-0.707107,-0.707107,260.275,78.0696)" style="fill:#ffd350;fill-rule:nonzero"/></g><g><path d="M-1.264,-0.524C-2.251,-0.524 -3.052,0.277 -3.052,1.264C-3.052,2.251 -2.252,3.052 -1.264,3.051C-0.277,3.051 0.523,2.251 0.523,1.264C0.523,0.277 -0.277,-0.524 -1.264,-0.524" transform="matrix(0.707107,-0.707107,-0.707107,-0.707107,268.318,86.114)" style="fill:#ffd350;fill-rule:nonzero"/></g><g><path d="M-1.265,-0.524C-2.252,-0.524 -3.052,0.277 -3.052,1.264C-3.053,2.252 -2.252,3.052 -1.265,3.051C-0.277,3.052 0.524,2.252 0.523,1.264C0.523,0.277 -0.277,-0.524 -1.265,-0.524" transform="matrix(0.707107,-0.707107,-0.707107,-0.707107,276.363,94.1584)" style="fill:#ffd350;fill-rule:nonzero"/></g><g><path d="M-1.265,-0.524C-2.252,-0.524 -3.052,0.277 -3.052,1.264C-3.053,2.252 -2.252,3.052 -1.265,3.051C-0.277,3.052 0.524,2.252 0.523,1.264C0.523,0.277 -0.277,-0.524 -1.265,-0.524" transform="matrix(0.707107,-0.707107,-0.707107,-0.707107,182.246,11.3034)" style="fill:#ffd350;fill-rule:nonzero"/></g><g><path d="M-1.264,-0.524C-2.251,-0.524 -3.052,0.277 -3.052,1.264C-3.052,2.251 -2.251,3.052 -1.264,3.052C-0.277,3.052 0.524,2.251 0.524,1.264C0.524,0.277 -0.277,-0.524 -1.264,-0.524" transform="matrix(0.707107,-0.707107,-0.707107,-0.707107,190.29,19.3478)" style="fill:#ffd350;fill-rule:nonzero"/></g><g><path d="M-1.265,-0.524C-2.252,-0.524 -3.052,0.277 -3.052,1.264C-3.053,2.252 -2.252,3.052 -1.265,3.051C-0.277,3.052 0.524,2.252 0.523,1.264C0.523,0.277 -0.277,-0.524 -1.265,-0.524" transform="matrix(0.707107,-0.707107,-0.707107,-0.707107,198.334,27.3918)" style="fill:#ffd350;fill-rule:nonzero"/></g><g><path d="M-1.264,-0.524C-2.251,-0.524 -3.052,0.277 -3.052,1.264C-3.052,2.251 -2.251,3.052 -1.264,3.052C-0.277,3.052 0.524,2.251 0.524,1.264C0.524,0.277 -0.277,-0.524 -1.264,-0.524" transform="matrix(0.707107,-0.707107,-0.707107,-0.707107,206.378,35.4362)" style="fill:#ffd350;fill-rule:nonzero"/></g><g><path d="M-1.265,-0.524C-2.252,-0.524 -3.052,0.277 -3.052,1.264C-3.053,2.252 -2.252,3.052 -1.265,3.051C-0.277,3.052 0.524,2.252 0.523,1.264C0.523,0.277 -0.277,-0.524 -1.265,-0.524" transform="matrix(0.707107,-0.707107,-0.707107,-0.707107,214.423,43.4801)" style="fill:#ffd350;fill-rule:nonzero"/></g><g><path d="M-1.264,-0.524C-2.251,-0.524 -3.052,0.277 -3.052,1.264C-3.052,2.251 -2.251,3.052 -1.264,3.052C-0.277,3.052 0.524,2.251 0.524,1.264C0.524,0.277 -0.277,-0.524 -1.264,-0.524" transform="matrix(0.707107,-0.707107,-0.707107,-0.707107,222.466,51.5246)" style="fill:#ffd350;fill-rule:nonzero"/></g><g><path d="M-1.264,-0.523C-2.251,-0.523 -3.052,0.277 -3.052,1.264C-3.052,2.251 -2.251,3.052 -1.264,3.052C-0.277,3.052 0.524,2.252 0.523,1.264C0.523,0.277 -0.277,-0.523 -1.264,-0.523" transform="matrix(0.707107,-0.707107,-0.707107,-0.707107,230.511,59.5689)" style="fill:#ffd350;fill-rule:nonzero"/></g><g><path d="M-1.264,-0.524C-2.251,-0.524 -3.052,0.277 -3.052,1.264C-3.052,2.251 -2.252,3.052 -1.264,3.051C-0.277,3.051 0.523,2.251 0.523,1.264C0.523,0.277 -0.277,-0.524 -1.264,-0.524" transform="matrix(0.707107,-0.707107,-0.707107,-0.707107,238.555,67.6126)" style="fill:#ffd350;fill-rule:nonzero"/></g><g><path d="M-1.264,-0.523C-2.251,-0.523 -3.052,0.277 -3.052,1.264C-3.052,2.251 -2.251,3.052 -1.264,3.052C-0.277,3.052 0.524,2.252 0.523,1.264C0.523,0.277 -0.277,-0.523 -1.264,-0.523" transform="matrix(0.707107,-0.707107,-0.707107,-0.707107,246.599,75.6573)" style="fill:#ffd350;fill-rule:nonzero"/></g><g><path d="M-1.264,-0.524C-2.25,-0.524 -3.051,0.276 -3.051,1.263C-3.052,2.251 -2.251,3.051 -1.264,3.051C-0.277,3.051 0.524,2.251 0.524,1.264C0.524,0.277 -0.277,-0.523 -1.264,-0.524" transform="matrix(0.707247,-0.706967,-0.706967,-0.707247,254.643,83.7017)" style="fill:#ffd350;fill-rule:nonzero"/></g><g><path d="M-1.265,-0.524C-2.252,-0.524 -3.052,0.277 -3.052,1.264C-3.053,2.252 -2.252,3.052 -1.265,3.051C-0.277,3.052 0.524,2.252 0.523,1.264C0.523,0.277 -0.277,-0.524 -1.265,-0.524" transform="matrix(0.707107,-0.707107,-0.707107,-0.707107,262.688,91.7453)" style="fill:#ffd350;fill-rule:nonzero"/></g><g><path d="M-1.264,-0.524C-2.251,-0.524 -3.052,0.277 -3.052,1.264C-3.052,2.251 -2.252,3.052 -1.264,3.051C-0.277,3.051 0.523,2.251 0.523,1.264C0.523,0.277 -0.277,-0.524 -1.264,-0.524" transform="matrix(0.707107,-0.707107,-0.707107,-0.707107,270.731,99.7893)" style="fill:#ffd350;fill-rule:nonzero"/></g><g><path d="M-1.264,-0.523C-2.251,-0.523 -3.052,0.277 -3.052,1.264C-3.052,2.251 -2.251,3.052 -1.264,3.052C-0.277,3.052 0.524,2.252 0.523,1.264C0.523,0.277 -0.277,-0.523 -1.264,-0.523" transform="matrix(0.707107,-0.707107,-0.707107,-0.707107,176.615,16.9346)" style="fill:#ffd350;fill-rule:nonzero"/></g><g><path d="M-1.264,-0.524C-2.251,-0.524 -3.052,0.277 -3.052,1.264C-3.052,2.251 -2.252,3.052 -1.264,3.051C-0.277,3.051 0.523,2.251 0.523,1.264C0.523,0.277 -0.277,-0.524 -1.264,-0.524" transform="matrix(0.707107,-0.707107,-0.707107,-0.707107,184.659,24.9783)" style="fill:#ffd350;fill-rule:nonzero"/></g><g><path d="M-1.264,-0.523C-2.251,-0.523 -3.052,0.277 -3.052,1.264C-3.052,2.251 -2.251,3.052 -1.264,3.052C-0.277,3.052 0.524,2.252 0.523,1.264C0.523,0.277 -0.277,-0.523 -1.264,-0.523" transform="matrix(0.707107,-0.707107,-0.707107,-0.707107,192.703,33.023)" style="fill:#ffd350;fill-rule:nonzero"/></g><g><path d="M-1.264,-0.524C-2.251,-0.524 -3.052,0.277 -3.052,1.264C-3.052,2.251 -2.252,3.052 -1.264,3.051C-0.277,3.051 0.523,2.251 0.523,1.264C0.523,0.277 -0.277,-0.524 -1.264,-0.524" transform="matrix(0.707107,-0.707107,-0.707107,-0.707107,200.747,41.0667)" style="fill:#ffd350;fill-rule:nonzero"/></g><g><path d="M-1.264,-0.523C-2.251,-0.523 -3.052,0.277 -3.052,1.264C-3.052,2.251 -2.251,3.052 -1.264,3.052C-0.277,3.052 0.524,2.252 0.523,1.264C0.523,0.277 -0.277,-0.523 -1.264,-0.523" transform="matrix(0.707107,-0.707107,-0.707107,-0.707107,208.792,49.1114)" style="fill:#ffd350;fill-rule:nonzero"/></g><g><path d="M-1.264,-0.524C-2.251,-0.524 -3.052,0.277 -3.052,1.264C-3.052,2.251 -2.252,3.052 -1.264,3.051C-0.277,3.051 0.523,2.251 0.523,1.264C0.523,0.277 -0.277,-0.524 -1.264,-0.524" transform="matrix(0.707107,-0.707107,-0.707107,-0.707107,216.835,57.155)" style="fill:#ffd350;fill-rule:nonzero"/></g><g><path d="M-1.264,-0.523C-2.251,-0.523 -3.052,0.277 -3.052,1.264C-3.052,2.251 -2.251,3.052 -1.264,3.052C-0.277,3.052 0.524,2.252 0.523,1.264C0.523,0.277 -0.277,-0.523 -1.264,-0.523" transform="matrix(0.707107,-0.707107,-0.707107,-0.707107,224.88,65.1998)" style="fill:#ffd350;fill-rule:nonzero"/></g><g><path d="M-1.264,-0.524C-2.251,-0.524 -3.052,0.277 -3.052,1.264C-3.052,2.251 -2.252,3.052 -1.264,3.051C-0.277,3.051 0.523,2.251 0.523,1.264C0.523,0.277 -0.277,-0.524 -1.264,-0.524" transform="matrix(0.707107,-0.707107,-0.707107,-0.707107,232.924,73.2434)" style="fill:#ffd350;fill-rule:nonzero"/></g><g><path d="M-1.264,-0.523C-2.251,-0.523 -3.052,0.277 -3.052,1.264C-3.052,2.251 -2.251,3.052 -1.264,3.052C-0.277,3.052 0.524,2.252 0.523,1.264C0.523,0.277 -0.277,-0.523 -1.264,-0.523" transform="matrix(0.707107,-0.707107,-0.707107,-0.707107,240.968,81.2881)" style="fill:#ffd350;fill-rule:nonzero"/></g><g><path d="M-1.264,-0.524C-2.251,-0.524 -3.052,0.277 -3.052,1.264C-3.052,2.251 -2.252,3.052 -1.264,3.051C-0.277,3.051 0.523,2.251 0.523,1.264C0.523,0.277 -0.277,-0.524 -1.264,-0.524" transform="matrix(0.707107,-0.707107,-0.707107,-0.707107,249.012,89.3318)" style="fill:#ffd350;fill-rule:nonzero"/></g><g><path d="M-1.265,-0.524C-2.252,-0.524 -3.052,0.277 -3.052,1.264C-3.053,2.252 -2.252,3.052 -1.265,3.051C-0.277,3.052 0.524,2.252 0.523,1.264C0.523,0.277 -0.277,-0.524 -1.265,-0.524" transform="matrix(0.707107,-0.707107,-0.707107,-0.707107,257.057,97.3761)" style="fill:#ffd350;fill-rule:nonzero"/></g><g><path d="M-1.264,-0.524C-2.251,-0.524 -3.052,0.277 -3.052,1.264C-3.052,2.251 -2.252,3.052 -1.264,3.051C-0.277,3.051 0.523,2.251 0.523,1.264C0.523,0.277 -0.277,-0.524 -1.264,-0.524" transform="matrix(0.707107,-0.707107,-0.707107,-0.707107,265.101,105.42)" style="fill:#ffd350;fill-rule:nonzero"/></g><g><path d="M-1.264,-0.524C-2.251,-0.524 -3.052,0.277 -3.052,1.264C-3.052,2.251 -2.251,3.052 -1.264,3.052C-0.277,3.052 0.524,2.251 0.524,1.264C0.524,0.277 -0.277,-0.524 -1.264,-0.524" transform="matrix(0.707107,-0.707107,-0.707107,-0.707107,170.984,22.5656)" style="fill:#ffd350;fill-rule:nonzero"/></g><g><path d="M-1.264,-0.524C-2.251,-0.524 -3.052,0.277 -3.052,1.264C-3.052,2.251 -2.252,3.052 -1.264,3.051C-0.277,3.051 0.523,2.251 0.523,1.264C0.523,0.277 -0.277,-0.524 -1.264,-0.524" transform="matrix(0.707107,-0.707107,-0.707107,-0.707107,179.028,30.6091)" style="fill:#ffd350;fill-rule:nonzero"/></g><g><path d="M-1.264,-0.523C-2.251,-0.523 -3.052,0.277 -3.052,1.264C-3.052,2.251 -2.251,3.052 -1.264,3.052C-0.277,3.052 0.524,2.252 0.523,1.264C0.523,0.277 -0.277,-0.523 -1.264,-0.523" transform="matrix(0.707107,-0.707107,-0.707107,-0.707107,187.072,38.6539)" style="fill:#ffd350;fill-rule:nonzero"/></g><g><path d="M-1.264,-0.524C-2.251,-0.524 -3.052,0.277 -3.052,1.264C-3.052,2.251 -2.252,3.052 -1.264,3.051C-0.277,3.051 0.523,2.251 0.523,1.264C0.523,0.277 -0.277,-0.524 -1.264,-0.524" transform="matrix(0.707107,-0.707107,-0.707107,-0.707107,195.116,46.6975)" style="fill:#ffd350;fill-rule:nonzero"/></g><g><path d="M-1.264,-0.523C-2.251,-0.523 -3.052,0.277 -3.052,1.264C-3.052,2.251 -2.251,3.052 -1.264,3.052C-0.277,3.052 0.524,2.252 0.523,1.264C0.523,0.277 -0.277,-0.523 -1.264,-0.523" transform="matrix(0.707107,-0.707107,-0.707107,-0.707107,203.161,54.7422)" style="fill:#ffd350;fill-rule:nonzero"/></g><g><path d="M-1.264,-0.524C-2.251,-0.524 -3.052,0.277 -3.052,1.264C-3.052,2.251 -2.252,3.052 -1.264,3.051C-0.277,3.051 0.523,2.251 0.523,1.264C0.523,0.277 -0.277,-0.524 -1.264,-0.524" transform="matrix(0.707107,-0.707107,-0.707107,-0.707107,211.205,62.7859)" style="fill:#ffd350;fill-rule:nonzero"/></g><g><path d="M-1.264,-0.523C-2.251,-0.523 -3.052,0.277 -3.052,1.264C-3.052,2.251 -2.251,3.052 -1.264,3.052C-0.277,3.052 0.524,2.252 0.523,1.264C0.523,0.277 -0.277,-0.523 -1.264,-0.523" transform="matrix(0.707107,-0.707107,-0.707107,-0.707107,219.249,70.8306)" style="fill:#ffd350;fill-rule:nonzero"/></g><g><path d="M-1.264,-0.524C-2.251,-0.524 -3.052,0.277 -3.052,1.264C-3.052,2.251 -2.252,3.052 -1.264,3.051C-0.277,3.051 0.523,2.251 0.523,1.264C0.523,0.277 -0.277,-0.524 -1.264,-0.524" transform="matrix(0.707107,-0.707107,-0.707107,-0.707107,227.293,78.8743)" style="fill:#ffd350;fill-rule:nonzero"/></g><g><path d="M-1.264,-0.523C-2.251,-0.523 -3.052,0.277 -3.052,1.264C-3.052,2.251 -2.251,3.052 -1.264,3.052C-0.277,3.052 0.524,2.252 0.523,1.264C0.523,0.277 -0.277,-0.523 -1.264,-0.523" transform="matrix(0.707107,-0.707107,-0.707107,-0.707107,235.337,86.919)" style="fill:#ffd350;fill-rule:nonzero"/></g><g><path d="M-1.264,-0.524C-2.251,-0.524 -3.052,0.277 -3.052,1.264C-3.052,2.251 -2.252,3.052 -1.264,3.051C-0.277,3.051 0.523,2.251 0.523,1.264C0.523,0.277 -0.277,-0.524 -1.264,-0.524" transform="matrix(0.707107,-0.707107,-0.707107,-0.707107,243.381,94.9627)" style="fill:#ffd350;fill-rule:nonzero"/></g><g><path d="M-1.264,-0.523C-2.251,-0.523 -3.052,0.277 -3.052,1.264C-3.052,2.251 -2.251,3.052 -1.264,3.052C-0.277,3.052 0.524,2.252 0.523,1.264C0.523,0.277 -0.277,-0.523 -1.264,-0.523" transform="matrix(0.707107,-0.707107,-0.707107,-0.707107,251.426,103.007)" style="fill:#ffd350;fill-rule:nonzero"/></g><g><path d="M-1.264,-0.524C-2.251,-0.524 -3.052,0.277 -3.052,1.264C-3.052,2.251 -2.252,3.052 -1.264,3.051C-0.277,3.051 0.523,2.251 0.523,1.264C0.523,0.277 -0.277,-0.524 -1.264,-0.524" transform="matrix(0.707107,-0.707107,-0.707107,-0.707107,259.47,111.051)" style="fill:#ffd350;fill-rule:nonzero"/></g><g><path d="M-1.264,-0.524C-2.251,-0.524 -3.052,0.277 -3.052,1.264C-3.052,2.251 -2.251,3.052 -1.264,3.052C-0.277,3.052 0.524,2.251 0.524,1.264C0.524,0.277 -0.277,-0.524 -1.264,-0.524" transform="matrix(0.707107,-0.707107,-0.707107,-0.707107,165.353,28.1964)" style="fill:#ffd350;fill-rule:nonzero"/></g><g><path d="M-1.265,-0.524C-2.252,-0.524 -3.052,0.277 -3.052,1.264C-3.053,2.252 -2.252,3.052 -1.265,3.051C-0.277,3.052 0.524,2.252 0.523,1.264C0.523,0.277 -0.277,-0.524 -1.265,-0.524" transform="matrix(0.707107,-0.707107,-0.707107,-0.707107,173.397,36.2404)" style="fill:#ffd350;fill-rule:nonzero"/></g><g><path d="M-1.264,-0.524C-2.251,-0.524 -3.052,0.277 -3.052,1.264C-3.052,2.251 -2.251,3.052 -1.264,3.052C-0.277,3.052 0.524,2.251 0.524,1.264C0.524,0.277 -0.277,-0.524 -1.264,-0.524" transform="matrix(0.707107,-0.707107,-0.707107,-0.707107,181.441,44.2848)" style="fill:#ffd350;fill-rule:nonzero"/></g><g><path d="M-1.265,-0.524C-2.252,-0.524 -3.052,0.277 -3.052,1.264C-3.053,2.252 -2.252,3.052 -1.265,3.051C-0.277,3.052 0.524,2.252 0.523,1.264C0.523,0.277 -0.277,-0.524 -1.265,-0.524" transform="matrix(0.707107,-0.707107,-0.707107,-0.707107,189.486,52.3288)" style="fill:#ffd350;fill-rule:nonzero"/></g><g><path d="M-1.264,-0.524C-2.251,-0.524 -3.052,0.277 -3.052,1.264C-3.052,2.251 -2.251,3.052 -1.264,3.052C-0.277,3.052 0.524,2.251 0.524,1.264C0.524,0.277 -0.277,-0.524 -1.264,-0.524" transform="matrix(0.707107,-0.707107,-0.707107,-0.707107,197.529,60.3732)" style="fill:#ffd350;fill-rule:nonzero"/></g><g><path d="M-1.265,-0.524C-2.252,-0.524 -3.052,0.277 -3.052,1.264C-3.053,2.252 -2.252,3.052 -1.265,3.051C-0.277,3.052 0.524,2.252 0.523,1.264C0.523,0.277 -0.277,-0.524 -1.265,-0.524" transform="matrix(0.707107,-0.707107,-0.707107,-0.707107,205.574,68.4171)" style="fill:#ffd350;fill-rule:nonzero"/></g><g><path d="M-1.264,-0.524C-2.251,-0.524 -3.052,0.277 -3.052,1.264C-3.052,2.251 -2.251,3.052 -1.264,3.052C-0.277,3.052 0.524,2.251 0.524,1.264C0.524,0.277 -0.277,-0.524 -1.264,-0.524" transform="matrix(0.707107,-0.707107,-0.707107,-0.707107,213.618,76.4616)" style="fill:#ffd350;fill-rule:nonzero"/></g><g><path d="M-1.265,-0.524C-2.252,-0.524 -3.052,0.277 -3.052,1.264C-3.053,2.252 -2.252,3.052 -1.265,3.051C-0.277,3.052 0.524,2.252 0.523,1.264C0.523,0.277 -0.277,-0.524 -1.265,-0.524" transform="matrix(0.707107,-0.707107,-0.707107,-0.707107,221.662,84.5055)" style="fill:#ffd350;fill-rule:nonzero"/></g><g><path d="M-1.264,-0.524C-2.251,-0.524 -3.052,0.277 -3.052,1.264C-3.052,2.251 -2.251,3.052 -1.264,3.052C-0.277,3.052 0.524,2.251 0.524,1.264C0.524,0.277 -0.277,-0.524 -1.264,-0.524" transform="matrix(0.707107,-0.707107,-0.707107,-0.707107,229.706,92.55)" style="fill:#ffd350;fill-rule:nonzero"/></g><g><path d="M-1.264,-0.524C-2.251,-0.524 -3.052,0.277 -3.052,1.264C-3.052,2.251 -2.252,3.052 -1.264,3.051C-0.277,3.051 0.523,2.251 0.523,1.264C0.523,0.277 -0.277,-0.524 -1.264,-0.524" transform="matrix(0.707107,-0.707107,-0.707107,-0.707107,237.751,100.594)" style="fill:#ffd350;fill-rule:nonzero"/></g><g><path d="M-1.264,-0.523C-2.251,-0.523 -3.052,0.277 -3.052,1.264C-3.052,2.251 -2.251,3.052 -1.264,3.052C-0.277,3.052 0.524,2.252 0.523,1.264C0.523,0.277 -0.277,-0.523 -1.264,-0.523" transform="matrix(0.707107,-0.707107,-0.707107,-0.707107,245.795,108.638)" style="fill:#ffd350;fill-rule:nonzero"/></g><g><path d="M-1.264,-0.524C-2.251,-0.524 -3.052,0.277 -3.052,1.264C-3.052,2.251 -2.252,3.052 -1.264,3.051C-0.277,3.051 0.523,2.251 0.523,1.264C0.523,0.277 -0.277,-0.524 -1.264,-0.524" transform="matrix(0.707107,-0.707107,-0.707107,-0.707107,253.839,116.682)" style="fill:#ffd350;fill-rule:nonzero"/></g><g><path d="M-1.264,-0.524C-2.251,-0.524 -3.052,0.277 -3.052,1.264C-3.052,2.251 -2.251,3.052 -1.264,3.052C-0.277,3.052 0.524,2.251 0.524,1.264C0.524,0.277 -0.277,-0.524 -1.264,-0.524" transform="matrix(0.707107,-0.707107,-0.707107,-0.707107,159.722,33.8273)" style="fill:#ffd350;fill-rule:nonzero"/></g><g><path d="M-1.265,-0.524C-2.252,-0.524 -3.052,0.277 -3.052,1.264C-3.053,2.252 -2.252,3.052 -1.265,3.051C-0.277,3.052 0.524,2.252 0.523,1.264C0.523,0.277 -0.277,-0.524 -1.265,-0.524" transform="matrix(0.707107,-0.707107,-0.707107,-0.707107,167.766,41.8712)" style="fill:#ffd350;fill-rule:nonzero"/></g><g><path d="M-1.264,-0.524C-2.251,-0.524 -3.052,0.277 -3.052,1.264C-3.052,2.251 -2.251,3.052 -1.264,3.052C-0.277,3.052 0.524,2.251 0.524,1.264C0.524,0.277 -0.277,-0.524 -1.264,-0.524" transform="matrix(0.707107,-0.707107,-0.707107,-0.707107,175.81,49.9157)" style="fill:#ffd350;fill-rule:nonzero"/></g><g><path d="M-1.264,-0.523C-2.251,-0.523 -3.052,0.277 -3.052,1.264C-3.052,2.251 -2.251,3.052 -1.264,3.052C-0.277,3.052 0.524,2.252 0.523,1.264C0.523,0.277 -0.277,-0.523 -1.264,-0.523" transform="matrix(0.707107,-0.707107,-0.707107,-0.707107,183.855,57.96)" style="fill:#ffd350;fill-rule:nonzero"/></g><g><path d="M-1.264,-0.524C-2.251,-0.524 -3.052,0.277 -3.052,1.264C-3.052,2.251 -2.252,3.052 -1.264,3.051C-0.277,3.051 0.523,2.251 0.523,1.264C0.523,0.277 -0.277,-0.524 -1.264,-0.524" transform="matrix(0.707107,-0.707107,-0.707107,-0.707107,191.898,66.0037)" style="fill:#ffd350;fill-rule:nonzero"/></g><g><path d="M-1.264,-0.523C-2.251,-0.523 -3.052,0.277 -3.052,1.264C-3.052,2.251 -2.251,3.052 -1.264,3.052C-0.277,3.052 0.524,2.252 0.523,1.264C0.523,0.277 -0.277,-0.523 -1.264,-0.523" transform="matrix(0.707107,-0.707107,-0.707107,-0.707107,199.943,74.0484)" style="fill:#ffd350;fill-rule:nonzero"/></g><g><path d="M-1.264,-0.524C-2.251,-0.524 -3.052,0.277 -3.052,1.264C-3.052,2.251 -2.252,3.052 -1.264,3.051C-0.277,3.051 0.523,2.251 0.523,1.264C0.523,0.277 -0.277,-0.524 -1.264,-0.524" transform="matrix(0.707107,-0.707107,-0.707107,-0.707107,207.987,82.092)" style="fill:#ffd350;fill-rule:nonzero"/></g><g><path d="M-1.264,-0.523C-2.251,-0.523 -3.052,0.277 -3.052,1.264C-3.052,2.251 -2.251,3.052 -1.264,3.052C-0.277,3.052 0.524,2.252 0.523,1.264C0.523,0.277 -0.277,-0.523 -1.264,-0.523" transform="matrix(0.707107,-0.707107,-0.707107,-0.707107,216.031,90.1368)" style="fill:#ffd350;fill-rule:nonzero"/></g><g><path d="M-1.264,-0.524C-2.251,-0.524 -3.052,0.277 -3.052,1.264C-3.052,2.251 -2.252,3.052 -1.264,3.051C-0.277,3.051 0.523,2.251 0.523,1.264C0.523,0.277 -0.277,-0.524 -1.264,-0.524" transform="matrix(0.707107,-0.707107,-0.707107,-0.707107,224.075,98.1804)" style="fill:#ffd350;fill-rule:nonzero"/></g><g><path d="M-1.264,-0.523C-2.251,-0.523 -3.052,0.277 -3.052,1.264C-3.052,2.251 -2.251,3.052 -1.264,3.052C-0.277,3.052 0.524,2.252 0.523,1.264C0.523,0.277 -0.277,-0.523 -1.264,-0.523" transform="matrix(0.707107,-0.707107,-0.707107,-0.707107,232.12,106.225)" style="fill:#ffd350;fill-rule:nonzero"/></g><g><path d="M-1.264,-0.524C-2.251,-0.524 -3.052,0.277 -3.052,1.264C-3.052,2.251 -2.252,3.052 -1.264,3.051C-0.277,3.051 0.523,2.251 0.523,1.264C0.523,0.277 -0.277,-0.524 -1.264,-0.524" transform="matrix(0.707107,-0.707107,-0.707107,-0.707107,240.164,114.269)" style="fill:#ffd350;fill-rule:nonzero"/></g><g><path d="M-1.264,-0.523C-2.251,-0.523 -3.052,0.277 -3.052,1.264C-3.052,2.251 -2.251,3.052 -1.264,3.052C-0.277,3.052 0.524,2.252 0.523,1.264C0.523,0.277 -0.277,-0.523 -1.264,-0.523" transform="matrix(0.707107,-0.707107,-0.707107,-0.707107,248.208,122.313)" style="fill:#ffd350;fill-rule:nonzero"/></g><g><path d="M-1.264,-0.524C-2.251,-0.524 -3.052,0.277 -3.052,1.264C-3.052,2.251 -2.252,3.052 -1.264,3.051C-0.277,3.051 0.523,2.251 0.523,1.264C0.523,0.277 -0.277,-0.524 -1.264,-0.524" transform="matrix(0.707107,-0.707107,-0.707107,-0.707107,154.091,39.4578)" style="fill:#ffd350;fill-rule:nonzero"/></g><g><path d="M-1.264,-0.523C-2.251,-0.523 -3.052,0.277 -3.052,1.264C-3.052,2.251 -2.251,3.052 -1.264,3.052C-0.277,3.052 0.524,2.252 0.523,1.264C0.523,0.277 -0.277,-0.523 -1.264,-0.523" transform="matrix(0.707107,-0.707107,-0.707107,-0.707107,162.135,47.5025)" style="fill:#ffd350;fill-rule:nonzero"/></g><g><path d="M-1.264,-0.524C-2.251,-0.524 -3.052,0.277 -3.052,1.264C-3.052,2.251 -2.252,3.052 -1.264,3.051C-0.277,3.051 0.523,2.251 0.523,1.264C0.523,0.277 -0.277,-0.524 -1.264,-0.524" transform="matrix(0.707107,-0.707107,-0.707107,-0.707107,170.179,55.5461)" style="fill:#ffd350;fill-rule:nonzero"/></g><g><path d="M-1.264,-0.523C-2.251,-0.523 -3.052,0.277 -3.052,1.264C-3.052,2.251 -2.251,3.052 -1.264,3.052C-0.277,3.052 0.524,2.252 0.523,1.264C0.523,0.277 -0.277,-0.523 -1.264,-0.523" transform="matrix(0.707107,-0.707107,-0.707107,-0.707107,178.224,63.5909)" style="fill:#ffd350;fill-rule:nonzero"/></g><g><path d="M-1.264,-0.524C-2.251,-0.524 -3.052,0.277 -3.052,1.264C-3.052,2.251 -2.252,3.052 -1.264,3.051C-0.277,3.051 0.523,2.251 0.523,1.264C0.523,0.277 -0.277,-0.524 -1.264,-0.524" transform="matrix(0.707107,-0.707107,-0.707107,-0.707107,186.268,71.6345)" style="fill:#ffd350;fill-rule:nonzero"/></g><g><path d="M-1.264,-0.523C-2.251,-0.523 -3.052,0.277 -3.052,1.264C-3.052,2.251 -2.251,3.052 -1.264,3.052C-0.277,3.052 0.524,2.252 0.523,1.264C0.523,0.277 -0.277,-0.523 -1.264,-0.523" transform="matrix(0.707107,-0.707107,-0.707107,-0.707107,194.312,79.6793)" style="fill:#ffd350;fill-rule:nonzero"/></g><g><path d="M-1.264,-0.524C-2.251,-0.524 -3.052,0.277 -3.052,1.264C-3.052,2.251 -2.252,3.052 -1.264,3.051C-0.277,3.051 0.523,2.251 0.523,1.264C0.523,0.277 -0.277,-0.524 -1.264,-0.524" transform="matrix(0.707107,-0.707107,-0.707107,-0.707107,202.356,87.7229)" style="fill:#ffd350;fill-rule:nonzero"/></g><g><path d="M-1.264,-0.523C-2.251,-0.523 -3.052,0.277 -3.052,1.264C-3.052,2.251 -2.251,3.052 -1.264,3.052C-0.277,3.052 0.524,2.252 0.523,1.264C0.523,0.277 -0.277,-0.523 -1.264,-0.523" transform="matrix(0.707107,-0.707107,-0.707107,-0.707107,210.4,95.7676)" style="fill:#ffd350;fill-rule:nonzero"/></g><g><path d="M-1.264,-0.524C-2.251,-0.524 -3.052,0.277 -3.052,1.264C-3.052,2.251 -2.252,3.052 -1.264,3.051C-0.277,3.051 0.523,2.251 0.523,1.264C0.523,0.277 -0.277,-0.524 -1.264,-0.524" transform="matrix(0.707107,-0.707107,-0.707107,-0.707107,218.444,103.811)" style="fill:#ffd350;fill-rule:nonzero"/></g><g><path d="M-1.264,-0.523C-2.251,-0.523 -3.052,0.277 -3.052,1.264C-3.052,2.251 -2.251,3.052 -1.264,3.052C-0.277,3.052 0.524,2.252 0.523,1.264C0.523,0.277 -0.277,-0.523 -1.264,-0.523" transform="matrix(0.707107,-0.707107,-0.707107,-0.707107,226.489,111.856)" style="fill:#ffd350;fill-rule:nonzero"/></g><g><path d="M-1.264,-0.524C-2.251,-0.524 -3.052,0.277 -3.052,1.264C-3.052,2.251 -2.252,3.052 -1.264,3.051C-0.277,3.051 0.523,2.251 0.523,1.264C0.523,0.277 -0.277,-0.524 -1.264,-0.524" transform="matrix(0.707107,-0.707107,-0.707107,-0.707107,234.533,119.9)" style="fill:#ffd350;fill-rule:nonzero"/></g><g><path d="M-1.264,-0.523C-2.251,-0.523 -3.052,0.277 -3.052,1.264C-3.052,2.251 -2.251,3.052 -1.264,3.052C-0.277,3.052 0.524,2.252 0.523,1.264C0.523,0.277 -0.277,-0.523 -1.264,-0.523" transform="matrix(0.707107,-0.707107,-0.707107,-0.707107,242.577,127.944)" style="fill:#ffd350;fill-rule:nonzero"/></g><g><path d="M-1.265,-0.524C-2.252,-0.524 -3.052,0.277 -3.052,1.264C-3.053,2.252 -2.252,3.052 -1.265,3.051C-0.277,3.052 0.524,2.252 0.523,1.264C0.523,0.277 -0.277,-0.524 -1.265,-0.524" transform="matrix(0.707107,-0.707107,-0.707107,-0.707107,148.46,45.089)" style="fill:#ffd350;fill-rule:nonzero"/></g><g><path d="M-1.264,-0.524C-2.251,-0.524 -3.052,0.277 -3.052,1.264C-3.052,2.251 -2.251,3.052 -1.264,3.052C-0.277,3.052 0.524,2.251 0.524,1.264C0.524,0.277 -0.277,-0.524 -1.264,-0.524" transform="matrix(0.707107,-0.707107,-0.707107,-0.707107,156.504,53.1335)" style="fill:#ffd350;fill-rule:nonzero"/></g><g><path d="M-1.265,-0.524C-2.252,-0.524 -3.052,0.277 -3.052,1.264C-3.053,2.252 -2.252,3.052 -1.265,3.051C-0.277,3.052 0.524,2.252 0.523,1.264C0.523,0.277 -0.277,-0.524 -1.265,-0.524" transform="matrix(0.707107,-0.707107,-0.707107,-0.707107,164.549,61.1774)" style="fill:#ffd350;fill-rule:nonzero"/></g><g><path d="M-1.264,-0.524C-2.251,-0.524 -3.052,0.277 -3.052,1.264C-3.052,2.251 -2.251,3.052 -1.264,3.052C-0.277,3.052 0.524,2.251 0.524,1.264C0.524,0.277 -0.277,-0.524 -1.264,-0.524" transform="matrix(0.707107,-0.707107,-0.707107,-0.707107,172.592,69.2218)" style="fill:#ffd350;fill-rule:nonzero"/></g><g><path d="M-1.264,-0.524C-2.251,-0.524 -3.052,0.277 -3.052,1.264C-3.052,2.251 -2.252,3.052 -1.264,3.051C-0.277,3.051 0.523,2.251 0.523,1.264C0.523,0.277 -0.277,-0.524 -1.264,-0.524" transform="matrix(0.707107,-0.707107,-0.707107,-0.707107,180.637,77.2654)" style="fill:#ffd350;fill-rule:nonzero"/></g><g><path d="M-1.264,-0.523C-2.251,-0.523 -3.052,0.277 -3.052,1.264C-3.052,2.251 -2.251,3.052 -1.264,3.052C-0.277,3.052 0.524,2.252 0.523,1.264C0.523,0.277 -0.277,-0.523 -1.264,-0.523" transform="matrix(0.707107,-0.707107,-0.707107,-0.707107,188.681,85.3101)" style="fill:#ffd350;fill-rule:nonzero"/></g><g><path d="M-1.264,-0.524C-2.251,-0.524 -3.052,0.277 -3.052,1.264C-3.052,2.251 -2.252,3.052 -1.264,3.051C-0.277,3.051 0.523,2.251 0.523,1.264C0.523,0.277 -0.277,-0.524 -1.264,-0.524" transform="matrix(0.707107,-0.707107,-0.707107,-0.707107,196.725,93.3538)" style="fill:#ffd350;fill-rule:nonzero"/></g><g><path d="M-1.264,-0.523C-2.251,-0.523 -3.052,0.277 -3.052,1.264C-3.052,2.251 -2.251,3.052 -1.264,3.052C-0.277,3.052 0.524,2.252 0.523,1.264C0.523,0.277 -0.277,-0.523 -1.264,-0.523" transform="matrix(0.707107,-0.707107,-0.707107,-0.707107,204.77,101.398)" style="fill:#ffd350;fill-rule:nonzero"/></g><g><path d="M-1.264,-0.524C-2.251,-0.524 -3.052,0.277 -3.052,1.264C-3.052,2.251 -2.252,3.052 -1.264,3.051C-0.277,3.051 0.523,2.251 0.523,1.264C0.523,0.277 -0.277,-0.524 -1.264,-0.524" transform="matrix(0.707107,-0.707107,-0.707107,-0.707107,212.813,109.442)" style="fill:#ffd350;fill-rule:nonzero"/></g><g><path d="M-1.264,-0.523C-2.251,-0.523 -3.052,0.277 -3.052,1.264C-3.052,2.251 -2.251,3.052 -1.264,3.052C-0.277,3.052 0.524,2.252 0.523,1.264C0.523,0.277 -0.277,-0.523 -1.264,-0.523" transform="matrix(0.707107,-0.707107,-0.707107,-0.707107,220.858,117.487)" style="fill:#ffd350;fill-rule:nonzero"/></g><g><path d="M-1.264,-0.524C-2.251,-0.524 -3.052,0.277 -3.052,1.264C-3.052,2.251 -2.252,3.052 -1.264,3.051C-0.277,3.051 0.523,2.251 0.523,1.264C0.523,0.277 -0.277,-0.524 -1.264,-0.524" transform="matrix(0.707107,-0.707107,-0.707107,-0.707107,228.902,125.531)" style="fill:#ffd350;fill-rule:nonzero"/></g><g><path d="M-1.264,-0.523C-2.251,-0.523 -3.052,0.277 -3.052,1.264C-3.052,2.251 -2.251,3.052 -1.264,3.052C-0.277,3.052 0.524,2.252 0.523,1.264C0.523,0.277 -0.277,-0.523 -1.264,-0.523" transform="matrix(0.707107,-0.707107,-0.707107,-0.707107,236.946,133.575)" style="fill:#ffd350;fill-rule:nonzero"/></g><g><path d="M-1.265,-0.524C-2.252,-0.524 -3.052,0.277 -3.052,1.264C-3.053,2.252 -2.252,3.052 -1.265,3.051C-0.277,3.052 0.524,2.252 0.523,1.264C0.523,0.277 -0.277,-0.524 -1.265,-0.524" transform="matrix(0.707107,-0.707107,-0.707107,-0.707107,142.829,50.7199)" style="fill:#ffd350;fill-rule:nonzero"/></g><g><path d="M-1.264,-0.524C-2.251,-0.524 -3.052,0.277 -3.052,1.264C-3.052,2.251 -2.251,3.052 -1.264,3.052C-0.277,3.052 0.524,2.251 0.524,1.264C0.524,0.277 -0.277,-0.524 -1.264,-0.524" transform="matrix(0.707107,-0.707107,-0.707107,-0.707107,150.873,58.7643)" style="fill:#ffd350;fill-rule:nonzero"/></g><g><path d="M-1.265,-0.524C-2.252,-0.524 -3.052,0.277 -3.052,1.264C-3.053,2.252 -2.252,3.052 -1.265,3.051C-0.277,3.052 0.524,2.252 0.523,1.264C0.523,0.277 -0.277,-0.524 -1.265,-0.524" transform="matrix(0.707107,-0.707107,-0.707107,-0.707107,158.918,66.8083)" style="fill:#ffd350;fill-rule:nonzero"/></g><g><path d="M-1.264,-0.524C-2.251,-0.524 -3.052,0.277 -3.052,1.264C-3.052,2.251 -2.251,3.052 -1.264,3.052C-0.277,3.052 0.524,2.251 0.524,1.264C0.524,0.277 -0.277,-0.524 -1.264,-0.524" transform="matrix(0.707107,-0.707107,-0.707107,-0.707107,166.962,74.8527)" style="fill:#ffd350;fill-rule:nonzero"/></g><g><path d="M-1.265,-0.524C-2.252,-0.524 -3.052,0.277 -3.052,1.264C-3.053,2.252 -2.252,3.052 -1.265,3.051C-0.277,3.052 0.524,2.252 0.523,1.264C0.523,0.277 -0.277,-0.524 -1.265,-0.524" transform="matrix(0.707107,-0.707107,-0.707107,-0.707107,175.006,82.8966)" style="fill:#ffd350;fill-rule:nonzero"/></g><g><path d="M-1.264,-0.524C-2.251,-0.524 -3.052,0.277 -3.052,1.264C-3.052,2.251 -2.251,3.052 -1.264,3.052C-0.277,3.052 0.524,2.251 0.524,1.264C0.524,0.277 -0.277,-0.524 -1.264,-0.524" transform="matrix(0.707107,-0.707107,-0.707107,-0.707107,183.05,90.9411)" style="fill:#ffd350;fill-rule:nonzero"/></g><g><path d="M-1.265,-0.524C-2.252,-0.524 -3.052,0.277 -3.052,1.264C-3.053,2.252 -2.252,3.052 -1.265,3.051C-0.277,3.052 0.524,2.252 0.523,1.264C0.523,0.277 -0.277,-0.524 -1.265,-0.524" transform="matrix(0.707107,-0.707107,-0.707107,-0.707107,191.095,98.985)" style="fill:#ffd350;fill-rule:nonzero"/></g><g><path d="M-1.264,-0.524C-2.251,-0.524 -3.052,0.277 -3.052,1.264C-3.052,2.251 -2.251,3.052 -1.264,3.052C-0.277,3.052 0.524,2.251 0.524,1.264C0.524,0.277 -0.277,-0.524 -1.264,-0.524" transform="matrix(0.707107,-0.707107,-0.707107,-0.707107,199.138,107.03)" style="fill:#ffd350;fill-rule:nonzero"/></g><g><path d="M-1.264,-0.523C-2.251,-0.523 -3.052,0.277 -3.052,1.264C-3.052,2.251 -2.251,3.052 -1.264,3.052C-0.277,3.052 0.524,2.252 0.523,1.264C0.523,0.277 -0.277,-0.523 -1.264,-0.523" transform="matrix(0.707107,-0.707107,-0.707107,-0.707107,207.183,115.074)" style="fill:#ffd350;fill-rule:nonzero"/></g><g><path d="M-1.264,-0.524C-2.251,-0.524 -3.052,0.277 -3.052,1.264C-3.052,2.251 -2.252,3.052 -1.264,3.051C-0.277,3.051 0.523,2.251 0.523,1.264C0.523,0.277 -0.277,-0.524 -1.264,-0.524" transform="matrix(0.707107,-0.707107,-0.707107,-0.707107,215.227,123.117)" style="fill:#ffd350;fill-rule:nonzero"/></g><g><path d="M-1.264,-0.523C-2.251,-0.523 -3.052,0.277 -3.052,1.264C-3.052,2.251 -2.251,3.052 -1.264,3.052C-0.277,3.052 0.524,2.252 0.523,1.264C0.523,0.277 -0.277,-0.523 -1.264,-0.523" transform="matrix(0.707107,-0.707107,-0.707107,-0.707107,223.271,131.162)" style="fill:#ffd350;fill-rule:nonzero"/></g><g><path d="M-1.264,-0.524C-2.251,-0.524 -3.052,0.277 -3.052,1.264C-3.052,2.251 -2.252,3.052 -1.264,3.051C-0.277,3.051 0.523,2.251 0.523,1.264C0.523,0.277 -0.277,-0.524 -1.264,-0.524" transform="matrix(0.707107,-0.707107,-0.707107,-0.707107,231.315,139.206)" style="fill:#ffd350;fill-rule:nonzero"/></g><g><path d="M-1.264,-0.523C-2.251,-0.523 -3.052,0.277 -3.052,1.264C-3.052,2.251 -2.251,3.052 -1.264,3.052C-0.277,3.052 0.524,2.252 0.523,1.264C0.523,0.277 -0.277,-0.523 -1.264,-0.523" transform="matrix(0.707107,-0.707107,-0.707107,-0.707107,137.198,56.3511)" style="fill:#ffd350;fill-rule:nonzero"/></g><g><path d="M-1.264,-0.524C-2.251,-0.524 -3.052,0.277 -3.052,1.264C-3.052,2.251 -2.251,3.052 -1.264,3.052C-0.277,3.052 0.524,2.251 0.524,1.264C0.524,0.277 -0.277,-0.524 -1.264,-0.524" transform="matrix(0.707107,-0.707107,-0.707107,-0.707107,145.242,64.3952)" style="fill:#ffd350;fill-rule:nonzero"/></g><g><path d="M-1.264,-0.523C-2.251,-0.523 -3.052,0.277 -3.052,1.264C-3.052,2.251 -2.251,3.052 -1.264,3.052C-0.277,3.052 0.524,2.252 0.523,1.264C0.523,0.277 -0.277,-0.523 -1.264,-0.523" transform="matrix(0.707107,-0.707107,-0.707107,-0.707107,153.287,72.4395)" style="fill:#ffd350;fill-rule:nonzero"/></g><g><path d="M-1.264,-0.524C-2.251,-0.524 -3.052,0.277 -3.052,1.264C-3.052,2.251 -2.252,3.052 -1.264,3.051C-0.277,3.051 0.523,2.251 0.523,1.264C0.523,0.277 -0.277,-0.524 -1.264,-0.524" transform="matrix(0.707107,-0.707107,-0.707107,-0.707107,161.331,80.4832)" style="fill:#ffd350;fill-rule:nonzero"/></g><g><path d="M-1.264,-0.523C-2.251,-0.523 -3.052,0.277 -3.052,1.264C-3.052,2.251 -2.251,3.052 -1.264,3.052C-0.277,3.052 0.524,2.252 0.523,1.264C0.523,0.277 -0.277,-0.523 -1.264,-0.523" transform="matrix(0.707107,-0.707107,-0.707107,-0.707107,169.375,88.5279)" style="fill:#ffd350;fill-rule:nonzero"/></g><g><path d="M-1.264,-0.524C-2.251,-0.524 -3.052,0.277 -3.052,1.264C-3.052,2.251 -2.252,3.052 -1.264,3.051C-0.277,3.051 0.523,2.251 0.523,1.264C0.523,0.277 -0.277,-0.524 -1.264,-0.524" transform="matrix(0.707107,-0.707107,-0.707107,-0.707107,177.419,96.5715)" style="fill:#ffd350;fill-rule:nonzero"/></g><g><path d="M-1.264,-0.523C-2.251,-0.523 -3.052,0.277 -3.052,1.264C-3.052,2.251 -2.251,3.052 -1.264,3.052C-0.277,3.052 0.524,2.252 0.523,1.264C0.523,0.277 -0.277,-0.523 -1.264,-0.523" transform="matrix(0.707107,-0.707107,-0.707107,-0.707107,185.463,104.616)" style="fill:#ffd350;fill-rule:nonzero"/></g><g><path d="M-1.264,-0.524C-2.251,-0.524 -3.052,0.277 -3.052,1.264C-3.052,2.251 -2.252,3.052 -1.264,3.051C-0.277,3.051 0.523,2.251 0.523,1.264C0.523,0.277 -0.277,-0.524 -1.264,-0.524" transform="matrix(0.707107,-0.707107,-0.707107,-0.707107,193.507,112.66)" style="fill:#ffd350;fill-rule:nonzero"/></g><g><path d="M-1.264,-0.523C-2.251,-0.523 -3.052,0.277 -3.052,1.264C-3.052,2.251 -2.251,3.052 -1.264,3.052C-0.277,3.052 0.524,2.252 0.523,1.264C0.523,0.277 -0.277,-0.523 -1.264,-0.523" transform="matrix(0.707107,-0.707107,-0.707107,-0.707107,201.552,120.705)" style="fill:#ffd350;fill-rule:nonzero"/></g><g><path d="M-1.264,-0.524C-2.251,-0.524 -3.052,0.277 -3.052,1.264C-3.052,2.251 -2.252,3.052 -1.264,3.051C-0.277,3.051 0.523,2.251 0.523,1.264C0.523,0.277 -0.277,-0.524 -1.264,-0.524" transform="matrix(0.707107,-0.707107,-0.707107,-0.707107,209.596,128.748)" style="fill:#ffd350;fill-rule:nonzero"/></g><g><path d="M-1.264,-0.523C-2.251,-0.523 -3.052,0.277 -3.052,1.264C-3.052,2.251 -2.251,3.052 -1.264,3.052C-0.277,3.052 0.524,2.252 0.523,1.264C0.523,0.277 -0.277,-0.523 -1.264,-0.523" transform="matrix(0.707107,-0.707107,-0.707107,-0.707107,217.64,136.793)" style="fill:#ffd350;fill-rule:nonzero"/></g><g><path d="M-1.264,-0.524C-2.251,-0.524 -3.052,0.277 -3.052,1.264C-3.052,2.251 -2.252,3.052 -1.264,3.051C-0.277,3.051 0.523,2.251 0.523,1.264C0.523,0.277 -0.277,-0.524 -1.264,-0.524" transform="matrix(0.707107,-0.707107,-0.707107,-0.707107,225.684,144.837)" style="fill:#ffd350;fill-rule:nonzero"/></g><g><path d="M-1.264,-0.523C-2.251,-0.523 -3.052,0.277 -3.052,1.264C-3.052,2.251 -2.251,3.052 -1.264,3.052C-0.277,3.052 0.524,2.252 0.523,1.264C0.523,0.277 -0.277,-0.523 -1.264,-0.523" transform="matrix(0.707107,-0.707107,-0.707107,-0.707107,131.567,61.982)" style="fill:#ffd350;fill-rule:nonzero"/></g><g><path d="M-1.264,-0.524C-2.251,-0.524 -3.052,0.277 -3.052,1.264C-3.052,2.251 -2.252,3.052 -1.264,3.051C-0.277,3.051 0.523,2.251 0.523,1.264C0.523,0.277 -0.277,-0.524 -1.264,-0.524" transform="matrix(0.707107,-0.707107,-0.707107,-0.707107,139.611,70.0256)" style="fill:#ffd350;fill-rule:nonzero"/></g><g><path d="M-1.264,-0.523C-2.251,-0.523 -3.052,0.277 -3.052,1.264C-3.052,2.251 -2.251,3.052 -1.264,3.052C-0.277,3.052 0.524,2.252 0.523,1.264C0.523,0.277 -0.277,-0.523 -1.264,-0.523" transform="matrix(0.707107,-0.707107,-0.707107,-0.707107,147.656,78.0704)" style="fill:#ffd350;fill-rule:nonzero"/></g><g><path d="M-1.264,-0.524C-2.251,-0.524 -3.052,0.277 -3.052,1.264C-3.052,2.251 -2.252,3.052 -1.264,3.051C-0.277,3.051 0.523,2.251 0.523,1.264C0.523,0.277 -0.277,-0.524 -1.264,-0.524" transform="matrix(0.707107,-0.707107,-0.707107,-0.707107,155.7,86.114)" style="fill:#ffd350;fill-rule:nonzero"/></g><g><path d="M-1.264,-0.523C-2.251,-0.523 -3.052,0.277 -3.052,1.264C-3.052,2.251 -2.251,3.052 -1.264,3.052C-0.277,3.052 0.524,2.252 0.523,1.264C0.523,0.277 -0.277,-0.523 -1.264,-0.523" transform="matrix(0.707107,-0.707107,-0.707107,-0.707107,163.744,94.1588)" style="fill:#ffd350;fill-rule:nonzero"/></g><g><path d="M-1.264,-0.524C-2.251,-0.524 -3.052,0.277 -3.052,1.264C-3.052,2.251 -2.252,3.052 -1.264,3.051C-0.277,3.051 0.523,2.251 0.523,1.264C0.523,0.277 -0.277,-0.524 -1.264,-0.524" transform="matrix(0.707107,-0.707107,-0.707107,-0.707107,171.788,102.202)" style="fill:#ffd350;fill-rule:nonzero"/></g><g><path d="M-1.264,-0.523C-2.251,-0.523 -3.052,0.277 -3.052,1.264C-3.052,2.251 -2.251,3.052 -1.264,3.052C-0.277,3.052 0.524,2.252 0.523,1.264C0.523,0.277 -0.277,-0.523 -1.264,-0.523" transform="matrix(0.707107,-0.707107,-0.707107,-0.707107,179.833,110.247)" style="fill:#ffd350;fill-rule:nonzero"/></g><g><path d="M-1.264,-0.524C-2.251,-0.524 -3.052,0.277 -3.052,1.264C-3.052,2.251 -2.252,3.052 -1.264,3.051C-0.277,3.051 0.523,2.251 0.523,1.264C0.523,0.277 -0.277,-0.524 -1.264,-0.524" transform="matrix(0.707107,-0.707107,-0.707107,-0.707107,187.876,118.291)" style="fill:#ffd350;fill-rule:nonzero"/></g><g><path d="M-1.264,-0.523C-2.251,-0.523 -3.052,0.277 -3.052,1.264C-3.052,2.251 -2.251,3.052 -1.264,3.052C-0.277,3.052 0.524,2.252 0.523,1.264C0.523,0.277 -0.277,-0.523 -1.264,-0.523" transform="matrix(0.707107,-0.707107,-0.707107,-0.707107,195.921,126.335)" style="fill:#ffd350;fill-rule:nonzero"/></g><g><path d="M-1.264,-0.524C-2.251,-0.524 -3.052,0.277 -3.052,1.264C-3.052,2.251 -2.252,3.052 -1.264,3.051C-0.277,3.051 0.523,2.251 0.523,1.264C0.523,0.277 -0.277,-0.524 -1.264,-0.524" transform="matrix(0.707107,-0.707107,-0.707107,-0.707107,203.965,134.379)" style="fill:#ffd350;fill-rule:nonzero"/></g><g><path d="M-1.264,-0.523C-2.251,-0.523 -3.052,0.277 -3.052,1.264C-3.052,2.251 -2.251,3.052 -1.264,3.052C-0.277,3.052 0.524,2.252 0.523,1.264C0.523,0.277 -0.277,-0.523 -1.264,-0.523" transform="matrix(0.707107,-0.707107,-0.707107,-0.707107,212.009,142.424)" style="fill:#ffd350;fill-rule:nonzero"/></g><g><path d="M-1.264,-0.524C-2.251,-0.524 -3.052,0.277 -3.052,1.264C-3.052,2.251 -2.252,3.052 -1.264,3.051C-0.277,3.051 0.523,2.251 0.523,1.264C0.523,0.277 -0.277,-0.524 -1.264,-0.524" transform="matrix(0.707107,-0.707107,-0.707107,-0.707107,220.053,150.468)" style="fill:#ffd350;fill-rule:nonzero"/></g><g><path d="M-1.264,-0.524C-2.251,-0.524 -3.052,0.277 -3.052,1.264C-3.052,2.251 -2.251,3.052 -1.264,3.052C-0.277,3.052 0.524,2.251 0.524,1.264C0.524,0.277 -0.277,-0.524 -1.264,-0.524" transform="matrix(0.707107,-0.707107,-0.707107,-0.707107,125.936,67.613)" style="fill:#ffd350;fill-rule:nonzero"/></g><g><path d="M-1.265,-0.524C-2.252,-0.524 -3.052,0.277 -3.052,1.264C-3.053,2.252 -2.252,3.052 -1.265,3.051C-0.277,3.052 0.524,2.252 0.523,1.264C0.523,0.277 -0.277,-0.524 -1.265,-0.524" transform="matrix(0.707107,-0.707107,-0.707107,-0.707107,133.981,75.6569)" style="fill:#ffd350;fill-rule:nonzero"/></g><g><path d="M-1.264,-0.524C-2.251,-0.524 -3.052,0.277 -3.052,1.264C-3.052,2.251 -2.251,3.052 -1.264,3.052C-0.277,3.052 0.524,2.251 0.524,1.264C0.524,0.277 -0.277,-0.524 -1.264,-0.524" transform="matrix(0.707107,-0.707107,-0.707107,-0.707107,142.025,83.7013)" style="fill:#ffd350;fill-rule:nonzero"/></g><g><path d="M-1.265,-0.524C-2.252,-0.524 -3.052,0.277 -3.052,1.264C-3.053,2.252 -2.252,3.052 -1.265,3.051C-0.277,3.052 0.524,2.252 0.523,1.264C0.523,0.277 -0.277,-0.524 -1.265,-0.524" transform="matrix(0.707107,-0.707107,-0.707107,-0.707107,150.069,91.7453)" style="fill:#ffd350;fill-rule:nonzero"/></g><g><path d="M-1.264,-0.524C-2.251,-0.524 -3.052,0.277 -3.052,1.264C-3.052,2.251 -2.251,3.052 -1.264,3.052C-0.277,3.052 0.524,2.251 0.524,1.264C0.524,0.277 -0.277,-0.524 -1.264,-0.524" transform="matrix(0.707107,-0.707107,-0.707107,-0.707107,158.113,99.7897)" style="fill:#ffd350;fill-rule:nonzero"/></g><g><path d="M-1.265,-0.524C-2.252,-0.524 -3.052,0.277 -3.052,1.264C-3.053,2.252 -2.252,3.052 -1.265,3.051C-0.277,3.052 0.524,2.252 0.523,1.264C0.523,0.277 -0.277,-0.524 -1.265,-0.524" transform="matrix(0.707107,-0.707107,-0.707107,-0.707107,166.158,107.834)" style="fill:#ffd350;fill-rule:nonzero"/></g><g><path d="M-1.264,-0.524C-2.251,-0.524 -3.052,0.277 -3.052,1.264C-3.052,2.251 -2.251,3.052 -1.264,3.052C-0.277,3.052 0.524,2.251 0.524,1.264C0.524,0.277 -0.277,-0.524 -1.264,-0.524" transform="matrix(0.707107,-0.707107,-0.707107,-0.707107,174.201,115.878)" style="fill:#ffd350;fill-rule:nonzero"/></g><g><path d="M-1.264,-0.524C-2.251,-0.524 -3.052,0.277 -3.052,1.264C-3.052,2.251 -2.252,3.052 -1.264,3.051C-0.277,3.051 0.523,2.251 0.523,1.264C0.523,0.277 -0.277,-0.524 -1.264,-0.524" transform="matrix(0.707107,-0.707107,-0.707107,-0.707107,182.246,123.922)" style="fill:#ffd350;fill-rule:nonzero"/></g><g><path d="M-1.264,-0.523C-2.251,-0.523 -3.052,0.277 -3.052,1.264C-3.052,2.251 -2.251,3.052 -1.264,3.052C-0.277,3.052 0.524,2.252 0.523,1.264C0.523,0.277 -0.277,-0.523 -1.264,-0.523" transform="matrix(0.707107,-0.707107,-0.707107,-0.707107,190.29,131.966)" style="fill:#ffd350;fill-rule:nonzero"/></g><g><path d="M-1.264,-0.524C-2.251,-0.524 -3.052,0.277 -3.052,1.264C-3.052,2.251 -2.252,3.052 -1.264,3.051C-0.277,3.051 0.523,2.251 0.523,1.264C0.523,0.277 -0.277,-0.524 -1.264,-0.524" transform="matrix(0.707107,-0.707107,-0.707107,-0.707107,198.334,140.01)" style="fill:#ffd350;fill-rule:nonzero"/></g><g><path d="M-1.264,-0.523C-2.251,-0.523 -3.052,0.277 -3.052,1.264C-3.052,2.251 -2.251,3.052 -1.264,3.052C-0.277,3.052 0.524,2.252 0.523,1.264C0.523,0.277 -0.277,-0.523 -1.264,-0.523" transform="matrix(0.707107,-0.707107,-0.707107,-0.707107,206.378,148.055)" style="fill:#ffd350;fill-rule:nonzero"/></g><g><path d="M-1.264,-0.524C-2.251,-0.524 -3.052,0.277 -3.052,1.264C-3.052,2.251 -2.252,3.052 -1.264,3.051C-0.277,3.051 0.523,2.251 0.523,1.264C0.523,0.277 -0.277,-0.524 -1.264,-0.524" transform="matrix(0.707107,-0.707107,-0.707107,-0.707107,214.422,156.098)" style="fill:#ffd350;fill-rule:nonzero"/></g><g><path d="M-1.265,-0.524C-2.252,-0.524 -3.052,0.277 -3.052,1.264C-3.053,2.252 -2.252,3.052 -1.265,3.051C-0.277,3.052 0.524,2.252 0.523,1.264C0.523,0.277 -0.277,-0.524 -1.265,-0.524" transform="matrix(0.707107,-0.707107,-0.707107,-0.707107,367.513,3.008)" style="fill:#ffd350;fill-rule:nonzero"/></g><g><path d="M-1.264,-0.524C-2.251,-0.524 -3.052,0.277 -3.052,1.264C-3.052,2.251 -2.252,3.052 -1.264,3.051C-0.277,3.051 0.523,2.251 0.523,1.264C0.523,0.277 -0.277,-0.524 -1.264,-0.524" transform="matrix(0.707107,-0.707107,-0.707107,-0.707107,353.838,0.594546)" style="fill:#ffd350;fill-rule:nonzero"/></g><g><path d="M-1.265,-0.524C-2.252,-0.524 -3.052,0.277 -3.052,1.264C-3.053,2.252 -2.252,3.052 -1.265,3.051C-0.277,3.052 0.524,2.252 0.523,1.264C0.523,0.277 -0.277,-0.524 -1.265,-0.524" transform="matrix(0.707107,-0.707107,-0.707107,-0.707107,361.882,8.6388)" style="fill:#ffd350;fill-rule:nonzero"/></g><g><path d="M-1.264,-0.524C-2.25,-0.524 -3.051,0.276 -3.051,1.263C-3.052,2.251 -2.251,3.051 -1.264,3.051C-0.277,3.051 0.524,2.251 0.524,1.264C0.524,0.277 -0.277,-0.523 -1.264,-0.524" transform="matrix(0.707247,-0.706967,-0.706967,-0.707247,340.162,-1.81785)" style="fill:#ffd350;fill-rule:nonzero"/></g><g><path d="M-1.265,-0.524C-2.252,-0.524 -3.052,0.277 -3.052,1.264C-3.053,2.252 -2.252,3.052 -1.265,3.051C-0.277,3.052 0.524,2.252 0.523,1.264C0.523,0.277 -0.277,-0.524 -1.265,-0.524" transform="matrix(0.707107,-0.707107,-0.707107,-0.707107,348.207,6.2257)" style="fill:#ffd350;fill-rule:nonzero"/></g><g><path d="M-1.264,-0.524C-2.251,-0.524 -3.052,0.277 -3.052,1.264C-3.052,2.251 -2.252,3.052 -1.264,3.051C-0.277,3.051 0.523,2.251 0.523,1.264C0.523,0.277 -0.277,-0.524 -1.264,-0.524" transform="matrix(0.707107,-0.707107,-0.707107,-0.707107,356.251,14.2698)" style="fill:#ffd350;fill-rule:nonzero"/></g><g><path d="M-1.264,-0.524C-2.25,-0.524 -3.051,0.277 -3.051,1.263C-3.052,2.251 -2.251,3.051 -1.264,3.051C-0.277,3.052 0.524,2.251 0.524,1.264C0.524,0.277 -0.277,-0.523 -1.264,-0.524" transform="matrix(0.707247,-0.706967,-0.706967,-0.707247,334.531,3.81305)" style="fill:#ffd350;fill-rule:nonzero"/></g><g><path d="M-1.265,-0.524C-2.252,-0.524 -3.052,0.277 -3.052,1.264C-3.053,2.252 -2.252,3.052 -1.265,3.051C-0.277,3.052 0.524,2.252 0.523,1.264C0.523,0.277 -0.277,-0.524 -1.265,-0.524" transform="matrix(0.707107,-0.707107,-0.707107,-0.707107,342.576,11.8566)" style="fill:#ffd350;fill-rule:nonzero"/></g><g><path d="M-1.264,-0.524C-2.251,-0.524 -3.052,0.277 -3.052,1.264C-3.052,2.251 -2.252,3.052 -1.264,3.051C-0.277,3.051 0.523,2.251 0.523,1.264C0.523,0.277 -0.277,-0.524 -1.264,-0.524" transform="matrix(0.707107,-0.707107,-0.707107,-0.707107,350.62,19.9006)" style="fill:#ffd350;fill-rule:nonzero"/></g><g><path d="M-1.265,-0.524C-2.252,-0.524 -3.052,0.277 -3.052,1.264C-3.053,2.252 -2.252,3.052 -1.265,3.051C-0.277,3.052 0.524,2.252 0.523,1.264C0.523,0.277 -0.277,-0.524 -1.265,-0.524" transform="matrix(0.707107,-0.707107,-0.707107,-0.707107,320.857,1.3991)" style="fill:#ffd350;fill-rule:nonzero"/></g><g><path d="M-1.264,-0.524C-2.251,-0.524 -3.052,0.277 -3.052,1.264C-3.052,2.251 -2.251,3.052 -1.264,3.052C-0.277,3.052 0.524,2.251 0.524,1.264C0.524,0.277 -0.277,-0.524 -1.264,-0.524" transform="matrix(0.707107,-0.707107,-0.707107,-0.707107,328.901,9.4435)" style="fill:#ffd350;fill-rule:nonzero"/></g><g><path d="M-1.265,-0.524C-2.252,-0.524 -3.052,0.276 -3.052,1.263C-3.053,2.251 -2.252,3.052 -1.265,3.051C-0.277,3.052 0.524,2.251 0.523,1.263C0.522,0.277 -0.278,-0.523 -1.265,-0.524" transform="matrix(0.707107,-0.707107,-0.707107,-0.707107,336.946,17.4871)" style="fill:#ffd350;fill-rule:nonzero"/></g><g><path d="M-1.264,-0.524C-2.251,-0.524 -3.052,0.277 -3.052,1.264C-3.052,2.251 -2.252,3.052 -1.264,3.051C-0.277,3.051 0.523,2.251 0.523,1.264C0.523,0.277 -0.277,-0.524 -1.264,-0.524" transform="matrix(0.707107,-0.707107,-0.707107,-0.707107,344.989,25.5315)" style="fill:#ffd350;fill-rule:nonzero"/></g><g><path d="M-1.265,-0.524C-2.252,-0.524 -3.052,0.277 -3.052,1.264C-3.053,2.252 -2.252,3.052 -1.265,3.051C-0.277,3.052 0.524,2.252 0.523,1.264C0.523,0.277 -0.277,-0.524 -1.265,-0.524" transform="matrix(0.707107,-0.707107,-0.707107,-0.707107,307.182,-1.014)" style="fill:#ffd350;fill-rule:nonzero"/></g><g><path d="M-1.264,-0.524C-2.251,-0.524 -3.052,0.277 -3.052,1.264C-3.052,2.251 -2.252,3.052 -1.264,3.051C-0.277,3.051 0.523,2.251 0.523,1.264C0.523,0.277 -0.277,-0.524 -1.264,-0.524" transform="matrix(0.707107,-0.707107,-0.707107,-0.707107,315.226,7.03005)" style="fill:#ffd350;fill-rule:nonzero"/></g><g><path d="M-1.264,-0.524C-2.251,-0.524 -3.052,0.277 -3.052,1.264C-3.052,2.251 -2.251,3.052 -1.264,3.052C-0.277,3.052 0.524,2.251 0.524,1.264C0.524,0.277 -0.277,-0.524 -1.264,-0.524" transform="matrix(0.707107,-0.707107,-0.707107,-0.707107,323.27,15.0744)" style="fill:#ffd350;fill-rule:nonzero"/></g><g><path d="M-1.264,-0.524C-2.25,-0.524 -3.051,0.276 -3.051,1.263C-3.052,2.251 -2.251,3.051 -1.264,3.051C-0.277,3.051 0.524,2.251 0.524,1.264C0.524,0.277 -0.277,-0.523 -1.264,-0.524" transform="matrix(0.707247,-0.706967,-0.706967,-0.707247,331.314,23.1192)" style="fill:#ffd350;fill-rule:nonzero"/></g><g><path d="M-1.264,-0.524C-2.251,-0.524 -3.052,0.277 -3.052,1.264C-3.052,2.251 -2.252,3.052 -1.264,3.051C-0.277,3.051 0.523,2.251 0.523,1.264C0.523,0.277 -0.277,-0.524 -1.264,-0.524" transform="matrix(0.707107,-0.707107,-0.707107,-0.707107,339.358,31.1624)" style="fill:#ffd350;fill-rule:nonzero"/></g><g><path d="M-1.265,-0.524C-2.252,-0.524 -3.052,0.277 -3.052,1.264C-3.053,2.252 -2.252,3.052 -1.265,3.051C-0.277,3.052 0.524,2.252 0.523,1.264C0.523,0.277 -0.277,-0.524 -1.265,-0.524" transform="matrix(0.707107,-0.707107,-0.707107,-0.707107,301.551,4.6168)" style="fill:#ffd350;fill-rule:nonzero"/></g><g><path d="M-1.264,-0.524C-2.251,-0.524 -3.052,0.277 -3.052,1.264C-3.052,2.251 -2.252,3.052 -1.264,3.051C-0.277,3.051 0.523,2.251 0.523,1.264C0.523,0.277 -0.277,-0.524 -1.264,-0.524" transform="matrix(0.707107,-0.707107,-0.707107,-0.707107,309.595,12.6609)" style="fill:#ffd350;fill-rule:nonzero"/></g><g><path d="M-1.265,-0.524C-2.252,-0.524 -3.052,0.277 -3.052,1.264C-3.053,2.252 -2.252,3.052 -1.265,3.051C-0.277,3.052 0.524,2.252 0.523,1.264C0.523,0.277 -0.277,-0.524 -1.265,-0.524" transform="matrix(0.707107,-0.707107,-0.707107,-0.707107,317.639,20.7052)" style="fill:#ffd350;fill-rule:nonzero"/></g><g><path d="M-1.264,-0.524C-2.25,-0.524 -3.051,0.277 -3.051,1.263C-3.052,2.251 -2.251,3.051 -1.264,3.051C-0.277,3.052 0.524,2.251 0.524,1.264C0.524,0.277 -0.277,-0.523 -1.264,-0.524" transform="matrix(0.707247,-0.706967,-0.706967,-0.707247,325.683,28.7501)" style="fill:#ffd350;fill-rule:nonzero"/></g><g><path d="M-1.265,-0.524C-2.252,-0.524 -3.052,0.277 -3.052,1.264C-3.053,2.252 -2.252,3.052 -1.265,3.051C-0.277,3.052 0.524,2.252 0.523,1.264C0.523,0.277 -0.277,-0.524 -1.265,-0.524" transform="matrix(0.707107,-0.707107,-0.707107,-0.707107,333.728,36.7936)" style="fill:#ffd350;fill-rule:nonzero"/></g><g><path d="M-1.264,-0.524C-2.25,-0.524 -3.051,0.277 -3.051,1.263C-3.052,2.251 -2.251,3.051 -1.264,3.051C-0.277,3.052 0.524,2.251 0.524,1.264C0.524,0.277 -0.277,-0.523 -1.264,-0.524" transform="matrix(0.707247,-0.706967,-0.706967,-0.707247,287.875,2.20415)" style="fill:#ffd350;fill-rule:nonzero"/></g><g><path d="M-1.265,-0.524C-2.252,-0.524 -3.052,0.277 -3.052,1.264C-3.053,2.252 -2.252,3.052 -1.265,3.051C-0.277,3.052 0.524,2.252 0.523,1.264C0.523,0.277 -0.277,-0.524 -1.265,-0.524" transform="matrix(0.707107,-0.707107,-0.707107,-0.707107,295.92,10.2477)" style="fill:#ffd350;fill-rule:nonzero"/></g><g><path d="M-1.264,-0.524C-2.251,-0.524 -3.052,0.277 -3.052,1.264C-3.052,2.251 -2.252,3.052 -1.264,3.051C-0.277,3.051 0.523,2.251 0.523,1.264C0.523,0.277 -0.277,-0.524 -1.264,-0.524" transform="matrix(0.707107,-0.707107,-0.707107,-0.707107,303.964,18.2918)" style="fill:#ffd350;fill-rule:nonzero"/></g><g><path d="M-1.265,-0.524C-2.252,-0.524 -3.052,0.277 -3.052,1.264C-3.053,2.252 -2.252,3.052 -1.265,3.051C-0.277,3.052 0.524,2.252 0.523,1.264C0.523,0.277 -0.277,-0.524 -1.265,-0.524" transform="matrix(0.707107,-0.707107,-0.707107,-0.707107,312.008,26.3361)" style="fill:#ffd350;fill-rule:nonzero"/></g><g><path d="M-1.264,-0.524C-2.251,-0.524 -3.051,0.277 -3.051,1.263C-3.052,2.251 -2.251,3.051 -1.264,3.051C-0.277,3.052 0.523,2.251 0.524,1.264C0.524,0.277 -0.277,-0.523 -1.264,-0.524" transform="matrix(0.707247,-0.706967,-0.706967,-0.707247,320.052,34.3809)" style="fill:#ffd350;fill-rule:nonzero"/></g><g><path d="M-1.265,-0.524C-2.252,-0.524 -3.052,0.276 -3.052,1.263C-3.053,2.251 -2.252,3.052 -1.265,3.051C-0.277,3.052 0.524,2.251 0.523,1.263C0.522,0.277 -0.278,-0.523 -1.265,-0.524" transform="matrix(0.707107,-0.707107,-0.707107,-0.707107,328.097,42.4241)" style="fill:#ffd350;fill-rule:nonzero"/></g><g><path d="M-1.264,-0.524C-2.251,-0.524 -3.052,0.277 -3.052,1.264C-3.052,2.251 -2.252,3.052 -1.264,3.051C-0.277,3.051 0.523,2.251 0.523,1.264C0.523,0.277 -0.277,-0.524 -1.264,-0.524" transform="matrix(0.707107,-0.707107,-0.707107,-0.707107,274.2,-0.209654)" style="fill:#ffd350;fill-rule:nonzero"/></g><g><path d="M-1.264,-0.524C-2.251,-0.524 -3.052,0.277 -3.052,1.264C-3.052,2.251 -2.251,3.052 -1.264,3.052C-0.277,3.052 0.524,2.251 0.524,1.264C0.524,0.277 -0.277,-0.524 -1.264,-0.524" transform="matrix(0.707107,-0.707107,-0.707107,-0.707107,282.244,7.8346)" style="fill:#ffd350;fill-rule:nonzero"/></g><g><path d="M-1.265,-0.524C-2.252,-0.524 -3.052,0.276 -3.052,1.263C-3.053,2.251 -2.252,3.052 -1.265,3.051C-0.277,3.052 0.524,2.251 0.523,1.263C0.522,0.277 -0.278,-0.523 -1.265,-0.524" transform="matrix(0.707107,-0.707107,-0.707107,-0.707107,290.289,15.8782)" style="fill:#ffd350;fill-rule:nonzero"/></g><g><path d="M-1.264,-0.524C-2.251,-0.524 -3.052,0.277 -3.052,1.264C-3.052,2.251 -2.252,3.052 -1.264,3.051C-0.277,3.051 0.523,2.251 0.523,1.264C0.523,0.277 -0.277,-0.524 -1.264,-0.524" transform="matrix(0.707107,-0.707107,-0.707107,-0.707107,298.333,23.9226)" style="fill:#ffd350;fill-rule:nonzero"/></g><g><path d="M-1.265,-0.524C-2.252,-0.524 -3.052,0.277 -3.052,1.264C-3.053,2.252 -2.252,3.052 -1.265,3.051C-0.277,3.052 0.524,2.252 0.523,1.264C0.523,0.277 -0.277,-0.524 -1.265,-0.524" transform="matrix(0.707107,-0.707107,-0.707107,-0.707107,306.377,31.9669)" style="fill:#ffd350;fill-rule:nonzero"/></g><g><path d="M-1.264,-0.524C-2.251,-0.524 -3.052,0.277 -3.052,1.264C-3.052,2.251 -2.251,3.052 -1.264,3.052C-0.277,3.052 0.524,2.251 0.524,1.264C0.524,0.277 -0.277,-0.524 -1.264,-0.524" transform="matrix(0.707107,-0.707107,-0.707107,-0.707107,314.421,40.0114)" style="fill:#ffd350;fill-rule:nonzero"/></g><g><path d="M-1.265,-0.524C-2.252,-0.524 -3.052,0.276 -3.052,1.263C-3.053,2.251 -2.252,3.052 -1.265,3.051C-0.277,3.052 0.524,2.251 0.523,1.263C0.522,0.277 -0.278,-0.523 -1.265,-0.524" transform="matrix(0.707107,-0.707107,-0.707107,-0.707107,322.466,48.0549)" style="fill:#ffd350;fill-rule:nonzero"/></g><g><path d="M-1.264,-0.524C-2.251,-0.524 -3.052,0.277 -3.052,1.264C-3.052,2.251 -2.252,3.052 -1.264,3.051C-0.277,3.051 0.523,2.251 0.523,1.264C0.523,0.277 -0.277,-0.524 -1.264,-0.524" transform="matrix(0.707107,-0.707107,-0.707107,-0.707107,268.569,5.42115)" style="fill:#ffd350;fill-rule:nonzero"/></g><g><path d="M-1.264,-0.523C-2.251,-0.523 -3.052,0.277 -3.052,1.264C-3.052,2.251 -2.251,3.052 -1.264,3.052C-0.277,3.052 0.524,2.252 0.523,1.264C0.523,0.277 -0.277,-0.523 -1.264,-0.523" transform="matrix(0.707107,-0.707107,-0.707107,-0.707107,276.614,13.4659)" style="fill:#ffd350;fill-rule:nonzero"/></g><g><path d="M-1.264,-0.524C-2.25,-0.524 -3.051,0.276 -3.051,1.263C-3.052,2.251 -2.251,3.051 -1.264,3.051C-0.277,3.051 0.524,2.251 0.524,1.264C0.524,0.277 -0.277,-0.523 -1.264,-0.524" transform="matrix(0.707247,-0.706967,-0.706967,-0.707247,284.657,21.5103)" style="fill:#ffd350;fill-rule:nonzero"/></g><g><path d="M-1.265,-0.524C-2.252,-0.524 -3.052,0.277 -3.052,1.264C-3.053,2.252 -2.252,3.052 -1.265,3.051C-0.277,3.052 0.524,2.252 0.523,1.264C0.523,0.277 -0.277,-0.524 -1.265,-0.524" transform="matrix(0.707107,-0.707107,-0.707107,-0.707107,292.702,29.5539)" style="fill:#ffd350;fill-rule:nonzero"/></g><g><path d="M-1.264,-0.524C-2.251,-0.524 -3.052,0.277 -3.052,1.264C-3.052,2.251 -2.252,3.052 -1.264,3.051C-0.277,3.051 0.523,2.251 0.523,1.264C0.523,0.277 -0.277,-0.524 -1.264,-0.524" transform="matrix(0.707107,-0.707107,-0.707107,-0.707107,300.746,37.5979)" style="fill:#ffd350;fill-rule:nonzero"/></g><g><path d="M-1.265,-0.524C-2.252,-0.524 -3.052,0.277 -3.052,1.264C-3.053,2.252 -2.252,3.052 -1.265,3.051C-0.277,3.052 0.524,2.252 0.523,1.264C0.523,0.277 -0.277,-0.524 -1.265,-0.524" transform="matrix(0.707107,-0.707107,-0.707107,-0.707107,308.79,45.6422)" style="fill:#ffd350;fill-rule:nonzero"/></g><g><path d="M-1.264,-0.524C-2.25,-0.524 -3.051,0.276 -3.051,1.263C-3.052,2.251 -2.251,3.051 -1.264,3.051C-0.277,3.051 0.524,2.251 0.524,1.264C0.524,0.277 -0.277,-0.523 -1.264,-0.524" transform="matrix(0.707247,-0.706967,-0.706967,-0.707247,316.834,53.6871)" style="fill:#ffd350;fill-rule:nonzero"/></g><g><path d="M0,-72.526C-5.486,-67.041 -11.527,-67.417 -16.381,-67.719C-20.707,-67.988 -24.124,-68.201 -27.377,-64.948C-30.629,-61.696 -30.417,-58.279 -30.147,-53.953C-29.845,-49.099 -29.468,-43.058 -34.955,-37.572C-40.44,-32.087 -46.48,-32.463 -51.334,-32.766C-55.66,-33.036 -59.077,-33.249 -62.329,-29.997C-65.58,-26.745 -65.367,-23.329 -65.097,-19.003C-64.794,-14.15 -64.417,-8.109 -69.902,-2.624C-75.388,2.861 -81.428,2.484 -86.282,2.182C-90.607,1.912 -94.024,1.699 -97.276,4.951C-98.643,6.317 -100.858,6.317 -102.226,4.951C-103.592,3.583 -103.592,1.368 -102.226,0.001C-96.74,-5.484 -90.7,-5.108 -85.846,-4.805C-81.52,-4.535 -78.104,-4.322 -74.852,-7.574C-71.6,-10.825 -71.813,-14.242 -72.083,-18.568C-72.387,-23.421 -72.763,-29.462 -67.278,-34.946C-61.792,-40.432 -55.752,-40.055 -50.898,-39.753C-46.573,-39.483 -43.156,-39.27 -39.904,-42.522C-36.651,-45.775 -36.864,-49.192 -37.134,-53.518C-37.436,-58.372 -37.813,-64.412 -32.327,-69.898C-26.841,-75.383 -20.8,-75.007 -15.946,-74.706C-11.62,-74.436 -8.203,-74.223 -4.95,-77.476C-3.583,-78.842 -1.367,-78.843 0,-77.476C1.367,-76.109 1.366,-73.893 0,-72.526" transform="matrix(1,0,0,1,153.266,210.819)" style="fill:#68ecdf;fill-rule:nonzero"/></g><g><path d="M0,-72.526C-5.485,-67.041 -11.526,-67.417 -16.381,-67.718C-20.706,-67.988 -24.123,-68.201 -27.376,-64.948C-30.629,-61.695 -30.416,-58.279 -30.146,-53.953C-29.844,-49.099 -29.468,-43.058 -34.954,-37.572C-40.439,-32.086 -46.479,-32.463 -51.334,-32.766C-55.659,-33.036 -59.076,-33.249 -62.328,-29.997C-65.579,-26.745 -65.366,-23.329 -65.097,-19.003C-64.793,-14.15 -64.417,-8.109 -69.901,-2.624C-75.387,2.861 -81.428,2.485 -86.281,2.182C-90.606,1.912 -94.023,1.699 -97.275,4.951C-98.642,6.317 -100.857,6.317 -102.225,4.951C-103.592,3.583 -103.592,1.368 -102.225,0.001C-96.739,-5.484 -90.699,-5.108 -85.846,-4.805C-81.52,-4.535 -78.104,-4.322 -74.852,-7.574C-71.6,-10.825 -71.813,-14.241 -72.083,-18.568C-72.386,-23.421 -72.763,-29.462 -67.277,-34.946C-61.792,-40.432 -55.752,-40.055 -50.897,-39.752C-46.572,-39.483 -43.155,-39.27 -39.903,-42.522C-36.65,-45.775 -36.863,-49.192 -37.133,-53.518C-37.436,-58.372 -37.812,-64.412 -32.326,-69.898C-26.841,-75.383 -20.8,-75.007 -15.945,-74.705C-11.619,-74.436 -8.202,-74.223 -4.949,-77.476C-3.583,-78.842 -1.366,-78.843 0,-77.476C1.367,-76.109 1.367,-73.893 0,-72.526" transform="matrix(1,0,0,1,502.75,224.339)" style="fill:#fff;fill-rule:nonzero"/></g><g><path d="M0,-57.11L-57.11,-41.807L-15.303,0L0,-57.11Z" transform="matrix(1,0,0,1,345.201,180.375)" style="fill:none;fill-rule:nonzero;stroke:#68ecdf;stroke-width:1.99px;stroke-linecap:butt;stroke-linejoin:miter"/></g><g><path d="M0,-57.11L-57.11,-41.807L-15.303,0L0,-57.11Z" transform="matrix(1,0,0,1,340.002,164.154)" style="fill:none;fill-rule:nonzero;stroke:#fff;stroke-width:1.99px;stroke-linecap:butt;stroke-linejoin:miter"/></g></g></g></g></svg>